<mxfile host="Electron" modified="2024-06-06T17:24:53.389Z" agent="Mozilla/5.0 (Macintosh; Intel Mac OS X 10_15_7) AppleWebKit/537.36 (KHTML, like Gecko) draw.io/24.4.0 Chrome/120.0.6099.109 Electron/28.1.0 Safari/537.36" etag="8G_Q7GoSYIgd1NB1aGwI" version="24.4.0" type="device">
  <diagram name="Page-1" id="fLFjE6v8nQq2MMjqWC0G">
    <mxGraphModel dx="1242" dy="907" grid="1" gridSize="10" guides="1" tooltips="1" connect="1" arrows="1" fold="1" page="1" pageScale="1" pageWidth="850" pageHeight="1100" math="0" shadow="0">
      <root>
        <mxCell id="0" />
        <mxCell id="1" parent="0" />
        <mxCell id="g41ISQYCcfccL3WQsRhH-7" value="" style="edgeStyle=orthogonalEdgeStyle;rounded=0;orthogonalLoop=1;jettySize=auto;html=1;" edge="1" parent="1" source="g41ISQYCcfccL3WQsRhH-2" target="g41ISQYCcfccL3WQsRhH-6">
          <mxGeometry relative="1" as="geometry" />
        </mxCell>
        <mxCell id="g41ISQYCcfccL3WQsRhH-8" value="yourwebsite.com" style="edgeLabel;html=1;align=center;verticalAlign=middle;resizable=0;points=[];" vertex="1" connectable="0" parent="g41ISQYCcfccL3WQsRhH-7">
          <mxGeometry x="0.0263" y="4" relative="1" as="geometry">
            <mxPoint as="offset" />
          </mxGeometry>
        </mxCell>
        <mxCell id="g41ISQYCcfccL3WQsRhH-2" value="Users accessing your site" style="shape=image;verticalLabelPosition=bottom;labelBackgroundColor=default;verticalAlign=top;aspect=fixed;imageAspect=0;image=data:image/png,iVBORw0KGgoAAAANSUhEUgAAAEoAAABMCAYAAADKiSFsAAAAAXNSR0IArs4c6QAAAIRlWElmTU0AKgAAAAgABQESAAMAAAABAAEAAAEaAAUAAAABAAAASgEbAAUAAAABAAAAUgEoAAMAAAABAAIAAIdpAAQAAAABAAAAWgAAAAAAAACQAAAAAQAAAJAAAAABAAOgAQADAAAAAQABAACgAgAEAAAAAQAAAEqgAwAEAAAAAQAAAEwAAAAAo7WRfQAAAAlwSFlzAAAWJQAAFiUBSVIk8AAAEGdJREFUeAHtXHl0VNUZv/e9yYSwSWRHQrZRlmwosplM7B9atbaCqBQXqlhFKrZW2orHo0KperR1b3twaVWoCyAtUGjrUrcsLCJqhoRFZ5KwVhACAlln3rv93Te5d94Mk5k3kzc5/sE9J7nb93333t9dv+/eN4SccWcQOIPAGQS+uwhQO6o2qsA9Ls1BriGMlBJK8+H3pYS1MEIaIX8z0/U19bXVn9pRVqQMV9FFU5miTkf6JMpINiM0g1B2gjDqRR2qdD9dXb+z4qtIvkTj3QLKNa60gDnURyklV8UtmLGPA4QtbPRUbYlLa4Egp8h9sYPSxwglU2KRMzh03lusgzzQHcDUWIXEyssvct9FHcpagDQ2Fp3MozRHofS2zGFZjmOH9n4k0xMPqK5i91OKQp8HSCPjsVPuCCmgCpk7YEjWgWOH934RjydaflIjChV9Gr30S7NARlg1IWyNrjGPrupHHCwtkzA2jir0KnTqJcH6BjkwJVf5aiquR0w3y7AQduQXl69Dy38gaCEbMujbjLL1NKDvDjj042nEMUTX2XiqKNeggRMFreHrbIl3e+WisDQLkYSBMkaSQv8oZKOiu6nO5nlrqz4SaZE+gL0Avb8UDZpkynvcW1NxnykeN5hf7F4KwOdJQsYqGNHm+zwba2VaRCC/uOxyQpWlaGiOyAK2N/s8VctF3IqfEFB5Y8vPVZysDg1O48IxMj481tw+vcm75UTcwlyu9Pw+I5ajwJmCVmNaeYOnulLEY/l5he4rFZVukDQ6edm7veIOxAMyrYvAOWMmDcxw9tog1jOM/tY21nHeAc+W/V2wnJasnJYSIwHwPBYCiX3JTjZfbQkkLtPrbfcFjs5GJTeKIlSqPCHCcXxVUcnvTTTvAaS5iMcFifMc2PXJ0VMtjC8Be3mcYmfsRZ2/42GrzjJQo4rK8jCGrhaCdU2/q75+27cibsmvq+sgTLsjuK5wDjopt7jUHY83r6TsCtCOM+gY6/AzwkeSFo/PnP+1t/IbLGa/EmkA66bcwslDRTyebxkoB6HT5ILMyOcNtdXvxRMeLZ+vJ6jkv0QeRpUEX6RF+goj/JwUdJSs2uOpaBDRRPwGT+VqbDC+Th4HUdJ/aJXfMlDYaSYLoTrR14lwMj6GguTHOmde4KOKY0SRZWssxBuVOE6ibuJXCJNy47AR60ARmi2EYUTsFuFkfEp1yU9ZSG5Xsihlo2SeTr6U4SQCqLuZPyQ3jizLQGERdgpZ2F7j73KCOIrPNCr5zXKjkAaTGE0XeSzgl7wiLRGfUVPdKZFy48mwDBQEHZfCFDpMhpMKmPipSW4XsjA9Q2U7HZYX4OjiqJk/JDc6sUy1DBROvjsFF6ZLTP1K0HXlU5WF+Bnd1RWdTDeVjQqHeCWB9QDOcZIfWqBsUzwJloFSdPKxEIaFffrIkVMzRDxBH2oX+bHgwXol5Yq0SB8dI2kUQrnqk5TLy5twFoCS6o9CQ22KJ9AyUCfpiX9jCnSem+jgXmc77oknPFo+VIrZ8kyEA2Mr86+KRmdOCzD/Cpy9UDwcpZNdRe5p5nyrYdqv9/3g78fpIe2Qt6blA6u8loE65PE0Q4eVOh4KWISDYJnVgjhdduGUsdC7nhM8aPvrVtSIxu2bdqGBawUf9uqXcsZMyZFxCwFXifsyoCwPnIDqSUK2+S2wGiSWgeLUp9iJx9AVDQYnpU5KlPWG0mkkxP6XW+CelKam/RdD/yxOCZCO6XrHwthcoVytvWMBlEt0Fnd0sMOZ9kFuobs4GI/9P6+kdAYMeX9H2Z1mJbbDpzU9G5srPBe8iTluCWCUVOI80ptzosE61qxl7Zr2yL7ajeLUK4VmjS4dkZ6u/AYJd2JUGEcMzCEN1scrvTWV70hCC4HcYve16NlVQkPgyi0sF89iy38aJ/7DkSJyiqaOUanjIaTPCvGQbzXdP8UYpZEMMeIJA8VlBa2LZL2Y70I+QPMANA96/gjAyET+OCB5oaikQQddDWk3ebdXvSX4EvFh5rkFNq6XwOMQfLyzMMq2wAS8G+ZgbPl0CPLOh/YbblRkrEnTyBUNdZWfCF6rflJAceH5Be5SqtL3URnLhzY0CJ2vz/LWVsddwGM1ANP9J5Qqy2LRnJZnTFtW7vVUfnZanoWEhIHKKZg4THWkLyZMuRmjp5eFMsJIeO+j0DV+3f/gntrNls8xXEhwKqU9ggk/HaM0ofWV8/OpirUKozHwSLSpymm6cgkBlV9UNhf1ewqjqE+kQL7dIu0zDP9DqAyOEYyPtOF8+qGQcyPpEQ8QXX/C2/r1Ym6ripIfSjKMfsOXYF1cgEQ55QQBpnkjpnMN1j1MeeUUysb6SWFPZ4UANEvQSZ+Ro1hn58McvVKmxQlYAmpwQUHf/o6B3Dp5tVkeKuglTH+1Q9dXRFvIBS23+yg0fTpAvB0VnyDSuQ+APw342VV7dlb+z5wuwtlj3cMdaWQD+C4QadznfPi3TNPbVjfWbf3anGcOczsakL0O9vPbUH+XOQ+j+03txL5bGxsb28zp0cJxgUJBmU5K/4ORMdkk4ICu6w/WbzfszrCaWHe5heXfVxTyJKZtIecC2Ftbv2n+3sGD21qiSRkxYkLvjEF9Pgb9hQY9I7VMZ/fV11ZKm1Y0vihpqquk7AaMNG6lHSHyMR0/OtbcMS2epTYmUEOLi/v0IwMqMdXOl4IZW6mdODmvsfELywql4A35E9JcRRlLmKLM0gKtU2ONCM4TXBd7bcaUXuvTjt5LuKU0SWeoMX17v4ARKtUo3lntR/0X79+/qbUrsbGAorgaWo2enCGZGfmt11OxWMa7GeAdETzxxxeUCG18aYTkFZctUqiyWNIy8gbadqOMRwS6BAqC7oagZwS9Ttii+prKJSKeCt/o7Qzn4A5Y6lr99PCR3dUnU1GOkInrrz9gZP1axLEh341rLKliiXTuRwUqv7A8C5vvDuT2DRKz13CKhjJrv+OXC7Cbz8G0uhTlYacKOWM3I+RdPcD+mswhMSSpyxDNLylfARCCV2iMnfT7yehoG0vUswhA4nf6BkhY7PY0NXfM77KoJDP4uwX06NsqVSvQX3MiQeJi0YAc/M1VHXQLaNfye8Uki+uKjZ1ix2/F7tlgEMCygB328WjEp42o7OLyXAclXyHDUCCZps/w1VaticacbJqrsHQmU5VXcC7CeSfcdR4KMSOiHWbZCSwBN9bXVIUuQsPZk4rlFpf9CKP6n5yZaw+4PBmLi9ndZmGnjag0wn4hQcJuYDdIeUVlc4iqrgwDiZH1OmPXtgX8A301lb19noqMU81sCOp8Par+bqjCtD+MeOu4chxK636owVO1HueUzVwSegiqpHJXpNTIEUVdJeX7QHQOJwS2Cd/RRxZgjnP7lcK4fhi0IiDvAK7Vr493rc7PXqrKXkMzBnN5GHUtARIo21Oz6XOz/O6EMbW5heHNThlH8C5iGMLyjBg2onKKy/gdWxAkVKa9SUtKw++iwirMuC9IkBir93ewifFA4rIaaiveDbT7UTd2kMf5aMSLleeNIE+wwbU3BdahB051ihqEDc18wA6/10NvXyTLhJ061gFM0lkMwI41B00cZ5BzU0tA71JtiSaycdfmRj2gTcdO2NnLdJKrqMy2KdjZ1g9F2Uwl5SLM/bARhQVUnsBh9q02E3Y3jAb+TMjAbe2fvDuq60Tcql9ft3Er1oNXBD1T6J0ibIcPs8ZGIQdrkgmLSKAIldsv3vPtEkzd9blSjPkvlVqqB5YmKxMNkLyYgmWDRpcalwXJyjPzUS10g430XHNemMkCi2QmCjfy0bC/wCAvK2Vmih+mL5sfiamqc7zkwSMJX90mr4wnGOCGNyy8h1G/IWB1DHCywiOEbBJi8kvcj6MFc0Q8ER+DI81Eb2wcIh4GFECSdiYUNoAvm0k5RsJ6GQeT4cLMhinYmJTMMCa6F1EOFGaiwncn6XB86ItqhzVSZsYJmFsL25bTTB62RqER/zBnpiKMdVBuucnKR4MCyfJa5YPROmzHDxtROOjdjfuyp3U17bQTs9UCOJ1C2prM9DCyfSN7i0WxOJqJrYQpyRJkusIw80LO72cPM4X8OZSSeEjR/C18lzVzyvqbE+0OG0q2Svh0MVSEjnZ95L7d1caZKNGyoESPhn5obDRc3YBt7Ozu2cas1SBs6lljSZzKV1uxD4e5nZwTizB1OtVbE5cS5FCI8lPBi17+pCdA4uX1CFC8IOyo8vwDc9O9I8+bamgAPM+qyy+Y6gLUPxf0WEekTJGWKr/HgPq2XX++86aGD6t+6b0c67jV0mrDcnLGD6AOB3+Mb1yRAfg9vtaDr1rl7y5djwHFrZVo3HxRYczACf3oWdXB18YiNbrPH3eo/ftBuw+qQHxt0jU6N+41V3RxSaUaNqekOJNgwjcwOzOHjsKlDnUH2ekwldB5mUOzBw0cOupw06G95isryh92DBye/QAemb8IHuPcZPAxwm9hlidRhaRZemTXi6ydq7h8MUbXQ2h8WPk4x+Fmhx3AoRGGBoY1jPY38yIfZzB9oa+mCk92etaFnaN6qmg/IctgRb0E5ZWaywRqXBsYEFQIwjAMkjH2IdNI2EHQzJ/KcJTapK44vtOlZzgexhaIRxZCqUm4vABG1stt7W338083EuZOkqHHgIIJ+AZ8YwclO2I6MdKGabYZeuYW6IQNlOhNOG1rjKlQ0Fk+KjgRI6wU+RnmNho7KGPzfNsr15rTUxXuCaBUaPv887HbwxvBanBR8NzxZv/qeNfZxtsHNXMGZCwA0CVhchh7BhYFpGOcptClFqiCAme+OvBNLNkzRBv4SMDmvgDvFrh9OuHG8ZGJWcvfLpisBux13DveAnkpU5ZTejxwDR+7HA2aiQYYDsefd5pbyKX7diX/XTE+dd2e3m/UcqeTYGThQ2/D0WIcO7Jx/EjZNEwZUHkl5fcBpHuCDcHQYWS5z1M561TTXmHAF1kJ+5DRgjPXCoCTi+loTEX44wcMzToOsLYkLNACQ0qmXnbJ1PMdJG0rhBsdgfm1Bo+2+EUA3lra6vCNsZu/nbqsU2oAPx0wxbe9aputpUBYKlQYFR9evyhAwljagSc1N6Isu0HiWASgQ16H0VrLI3D4rFDhb+FtHwC2A4VXMDMx5S40qs0XV0Zm23nt1SlXelyH1LTAbCQYCznKnor357xjbHW2A4XfNlgoasgPhsm+whUyrPiNdRu/wHuBFwStqtD7EbZ1VNkKFH9SbTrnBNpY++9E5VPt+9vYo5jmfqMcvC93FZZdbGeZtgJFVcIXbMNB6d1g5TsXQd9dn5uWcd20RsjBaxk88LDP2QoUqjVNVA2fXrwhwj3l48ciVsqyGLtchm0I2AYU/xEGWC5zeZ24Xa1N1963oX6JiTjZ9j4vmzPhyDCKf4eTmICuqW0DKj3NGbqrp7R+f92msCurrqtgXw7/HQYoz18Kic50WizC3fXttEdlhSrDDvHflArFey6EnZbfIY4xSmRklF0l2wgUDG6dDr1a6nSQhF+rCH67fICWaZcs26Ye1oSU6Y3JNhZ1sk0bsG1EaVrra6raCz9LQkYn2zA7+XDnt0vT2v5mp8wzss4gcAaBMwh8VxH4P8KPsVKZtukbAAAAAElFTkSuQmCC;" vertex="1" parent="1">
          <mxGeometry x="40" y="230" width="74" height="76" as="geometry" />
        </mxCell>
        <mxCell id="g41ISQYCcfccL3WQsRhH-10" value="" style="edgeStyle=orthogonalEdgeStyle;rounded=0;orthogonalLoop=1;jettySize=auto;html=1;" edge="1" parent="1" source="g41ISQYCcfccL3WQsRhH-6" target="g41ISQYCcfccL3WQsRhH-9">
          <mxGeometry relative="1" as="geometry" />
        </mxCell>
        <mxCell id="g41ISQYCcfccL3WQsRhH-11" value="CNAME alias record" style="edgeLabel;html=1;align=center;verticalAlign=middle;resizable=0;points=[];" vertex="1" connectable="0" parent="g41ISQYCcfccL3WQsRhH-10">
          <mxGeometry x="0.2344" relative="1" as="geometry">
            <mxPoint x="-30" as="offset" />
          </mxGeometry>
        </mxCell>
        <mxCell id="g41ISQYCcfccL3WQsRhH-15" value="" style="edgeStyle=orthogonalEdgeStyle;rounded=0;orthogonalLoop=1;jettySize=auto;html=1;" edge="1" parent="1" source="g41ISQYCcfccL3WQsRhH-6" target="g41ISQYCcfccL3WQsRhH-14">
          <mxGeometry relative="1" as="geometry" />
        </mxCell>
        <mxCell id="g41ISQYCcfccL3WQsRhH-6" value="Route53" style="shape=image;verticalLabelPosition=bottom;labelBackgroundColor=default;verticalAlign=top;aspect=fixed;imageAspect=0;image=data:image/png,iVBORw0KGgoAAAANSUhEUgAAAHoAAAB4CAYAAAA9kebvAAAAAXNSR0IArs4c6QAAAIRlWElmTU0AKgAAAAgABQESAAMAAAABAAEAAAEaAAUAAAABAAAASgEbAAUAAAABAAAAUgEoAAMAAAABAAIAAIdpAAQAAAABAAAAWgAAAAAAAACQAAAAAQAAAJAAAAABAAOgAQADAAAAAQABAACgAgAEAAAAAQAAAHqgAwAEAAAAAQAAAHgAAAAAzuYkvAAAAAlwSFlzAAAWJQAAFiUBSVIk8AAAGENJREFUeAHtnQm4XUWRgCshbAFkDWuAJCQsYRXCFoEkQBAUURBEMWJYlHHGceabUWfRz2Uc5xtncB0ZwGGcMAMBVAyyagyQhQACCYQlIWwJGEgg7GBYhan/dcpTr1+fu7x7zn3v3Xvr++495/Tp06erqru6uqq6zyBROPfD777LsQOtSYEv/mrQoMGtiVoHq5gCHUbHFGnR6w6jW5SxMVodRscUadHrDqNblLExWh1GxxRp0esOo1uUsTFaHUbHFGnR6w6jW5SxMVodRscUadHrDqNblLExWh1GxxRp0esOo1uUsTFaHUbHFGnR6w6jW5SxMVodRscUadHrDqNblLExWv2C0ZtvL7LhpnHVir/eameRs84PP87Lhg3fIwJu/QH6nNHv/aDImf8pcvYFIjvuXR5JaEgnflVks+3Cj/MyG9dO+yhOFwbcwLGvoU8ZvcMeIhPPDCRYb8PAiBHvLZ4kXWV/ReQ9w7KyOT9R07hXNIDDR1zZ4Lj97kW/pb7y+ozRQzcTOf5LIoPXySq87vqB2fsdl6U1erbeUJGTviay3a6hpHffEeEHkMY98hQF1B1pAS4G4PihL4uAc19BnzAaxE/4O5GNtwhor3lJ5KWnwzn3jjonNIINNmmMLIjp0/5NBMlhMFOHCX4G3CPPZttaSu+O1BVmUndrvOAEbgC4ct/uhdTm/fcJoyednRH/nT+KXHuuyHRl/KpHMsR3e5/IGeeJ0EPqJQ6xrYyLp39fZMvhoUwCmm/8icj9s8Lvpv/Snr02yJk8p/8gPFNvXCx1o47UddfxWf3BZboyFtzAERg+VmTSWeG82f+DeGEz47r3Olrk/Z/P0JwzTeSuq8L1OusGQux7bHafs1efF1n0a5Glt4i88FT3e/5qqCpcu2oDOeCE7j307TdFbvihyEPzfW6R3Q4TOfYLIkPWy9JfXCWy4OqQ13pjdjc7Q5vmeepqksnu3nODyOyfivzxrZAy7iMiE6baXZHf/Dg0tiyl3DPiupvKaMbEU78tAkOBB+eJXPfdcO7/Rx6gIvCzIptu41PDOeLwmWUirzwr8uZrYSyEwUyXttpJJO6Rzz4R3vHs4z3LIoXnPvi34Vmfg3GcZ1frc6+p+H3rjaC4bbKVyDajVLHb2ucO59Rtlmrayxf2vMc7dj88pL+tDeBnXxFZ+VDPfGWkNJXRG20uMkWZaq0fZl2m4prelgJ62T7vFznoJBGerRdef1Xk9p+L3H2dis63Kz89eEgQ24ecIrLBxpXzpu7+4QWRO34pcu9vKuPzie+IbD0ylICUukSZz7NlQ9MYvY4S8tR/yTTfNS+LXPpFkZefqY4iTBh9kMgeE0SYm1aaDjEWPrkkSIrFs5Xo2gvrgSGqKY+dGHoeSlol3QBp8sS9Irzn0TurNybqgRSYomM2hhSAHn3FP6qIr9IQQ+7e/zeN0cf+lciek0JFYcYvvi7y+/vrrziE31LF85Y76lRFxfW6G4Qe9PorYexevVxF7Ov1l5t6grKHjQiWLTRqJAxlM24/93v9qVg3JSv1fF7ajnuJnPzNrBE9cJPIr3+Ul7uYdBit/aVcQDEyJvMmlJTeMJlnIexqFfn8ygaY+tSD4Vfku8AdGhz5mVDqnkcGnWPhNUW+pWdZg3smFZey834iR3w6K+++34YxM0tp7hnSAGMGP877CtAb7puVvX3CVBFoVSaU1qMxVhyv47CNc4ydaKRJGCRyzF+IjBoXplBMt9Cqi4L1NxI5+GSR/T+kGv9ajCEs06g7rhR54w9FvUkErZzpFFOvx+5S48x5Wva7PcufdYHIFjsEewI0glaXfknkxZU98xaRoiQufh6NSRFrkxkrYBoaZt689PBPqXb90QwdlJPFs7XVz2xsCgLR9z1Of6q952nTaOeLVFtedENjjYup497HBGXOGhMY0ZDm/V+Gmz9Dz2AmQj2B51aokUWZjaJXJJSjjGnTOemrIsyFAeafl/+DjkOPhev4n7klc8w8eHl1MF4gEbA2vfpcXs6gMDEvxgs2St+/g1qigqUge2bFA+F8+J5ZGmdYyZ5crL1wgeoQ9+kc+vH8qRL5N95SZNvR4R1YxLzDhPsesI5h7EnBNruEGYnZxpECM9TWkJICqedrSSuF0e87TeSQj2Wvr4TkFsNDizYkUVQQY942nZUUzpiardG5Jz2Rlk9+JAjz802U+LHBxJ5HU7718sw6hgVt/MeDBm95/BGDySvaqGhYvAdFkPcgGXBODF07RfLP2DmNkvxo2ACNHYn2vPbYFCDmEd0Gt12hdb3Mrho/lqJ1jzk0qxjzZFpoHtDrjckQ4yqda7+5Ri1P2sqxVY8+WITx1QMErkRknxdiL787iOauerixEnPoQ7eK7DIuGGZwLZo+QRk0GHpppZ7q30XDe/SOoGw+/Wio9zk/DfiB48j98xlN3ZBc9i4kRJGMpp5DfGWLOF94rcjkz4WSMBDgpfrlt1QSaQ+J4ZHbRQ6bopVQkyjEgNgwAEIxt4TwiFiUNJiPWM4baykbxmILxxDxxH0iy5SAMCAXlPEYO/hR7kh9z04q9hlvsWV7xsdlUC7inbrCKIYE3m8ALtaIMXk+rLimgAZ1wt9nTCYPNCwaCmc0ZsDBWnncdQAIH3G6yJxpXZfd/rANL7w6U8QQ+/QyG58gHNYnfgaIaCxL9HSMGuRhzospEVFbzdxp5cRHGLdkdvhxD4scQwHmV94D0xHhSJzXXg6OlriMP12rnjL+E3+66tLu86yATD9H6AzAgJkJNCwaCmc0FcR7A4FsrD7gwypC7xF5XH8xYCPGAwTjmG5g7nzkd3Gu7BobMb+ygQZDQ+RXL4ADuABM3e5UHFPAFA+DkgFjM9p/GVCawWS+KhOMjwCaL+LcuwPDnUCIu6+3K/XtfiA7H6hnHgdwS83ToQU0sVkBtCp6XPb0K43RiN8bfpCNkbgcMSSkAFFl4xuOC5tXpvL297RNVIEDBwCc8sQwtDA3LMMGtCoTymO01hoDyfzpWfURU4x3MWBQeXxRSKWFe809ztvfr8cckvVScEpZ+KCBF9nzL803JhWFb6mMppJEhtg4h2a79+R01buUsLW3djkwnWcgpPq6e5x83aGBzR6gDZa5sqF0RjOt8tOFsRPSKPmojO12qzy1SZfQ96lo5tTdwONkaRzHTsyu8Fqlpp5ZjmLOSmc01SQgzyJJthmtY9O2PSuPJm0Gfeafw0b0zNPfU6izzZ3BJTU7AHdsAgA08V6skFrOf1MYzfzTxmDQIBoyBYQXGRBcMNDAuz49Lh4Pjzs0KSpQwr8jdd4URvNicyZwvu0Y/nuCtwXj5hxo4GPDPS4eD6xuBp4mllbWsWmM9lGYODNSgGXLoDcBgfZsXx0t8JH3e1x8fcyQQtrq5f5OuedNYzRGewPTOO3ajt4uHTszLE9/Pvo6E8eWAr/65BVHk1TeItOaxmjGaYM8RpvCRj4cHQMNfMABjowU+Mbw5uupHOWklWLrTlXVgva5l+d48MytNQQ2z/8c1yE1han1WSsrVYbd4+jr7Jnu83jcPU18njLOm8bojTfPqv9ajljzMdteAmRPdj8jwN9cot3v9Ly68Mye0x3CeCygvucT3VMwbFx0Tve0+MrX2ePi8/nhaaPN1Ji0yt8t77xpohtfskHe+inCcwxwBVaDDdTj1Z/A1znPXv/8U1mNm2kraFqP3nnfDMG8NUdeI81rDFkp3aNPWMP1TiK4wfL7nmRpcy/uXoal23G/Y7NdGLwdwO7HR1/nzde6KeM8qzQowqyDOD8wETcDmsJoxNiI/TN0Un5p7mI1M8ibh9p9jqbYEIbEgr16Ia8elLPXURmTH75NQ5UvqF66rzOBgykw1y33CKWCNl7kp54pIq0popux1EyDhN74lm9IMG+2Ho3G6tdKW574aIxO+XvjvPVc76KBA5P/PDyxbKGucVZpUU0RIzd1Nm0bXFK2AHCHBgA0gTbNgNIZjWY5TiNMDLyDw9I4eq/PyqXZ2mKfJz4vg9HEqNnCgxWLRa7+1/xZQlwf1kMjmg08TpbG0dMA2uRp6P6ZRs9LZzS7AVjLxmjy4Nx0lW3tMHcJGqwFbD6eGn9reT7OM2xk2GSG6I+ntXfO+FbmjInz5l37IECPk88PDcyABG1YZFA2lMporEAWNwYixE5ZJIlHDDE3fK+QgohcOt/fzT+PezTXEC4V3JBfSriDV+mjX9dxf2hYLXnlN3s3dhLFamIenFL7jEEDH0d26Knqn1ZalQmlKmNEQlqve/7JfAc7a6IsdurRu2pfHG6MRtz+5WXd105jaybc984Z6v6sMlclIP8UZSzzWoAA/LGTQjgvjgdvCAk58v9xTYIDAYLgBG43Xtgz/70zNXb9+KCXQCMWE7CvSllQWo+ml7LmyWDOtKylWxpHHAF7qoZrcPe1dlb9aJYtNNfYQEGoLorO6T9Uoh9SuSxWVFj8Fjn3OSbsf8Y65s9cpPU7svLz8V2PA3u2eGeH5aVXz51mVyESNtX7sxyNnZXWo4+YmkWJEJf92J3piiK2zPT5lCphPoY7/USWOu9ijbBcowGIamljigLxENv4svc4IkyP0GxZ28WSGBavpwCtHcXrLS0DrRlDDOM1PY1ezoY2xJLbpjqpMnwaOGArwCUJbgxfqekZCwdYaMCiAaJTJkwNq1V8WUWdl8JoFreZxsl4xcLvFOCupMUb3Drdzmo73n9jOh8L2FmLzWJzlvZ0EfuU9MY4lMDc1s9vSbN9TSZ8WkWwyj1WlBADlheIzzMeCIo8+RshhRgxNG0/z7a80OZT3w3vYFoH7VjsVzSUIrrppQYP3Jzvd2XrRFv20hXgv8ieKuYIsU35Y+1TPYDzYcGvNFxXx1KAKRBSolbAGGPWNHC0rTDj59m9YfHsLNXTLktt/KxwRmPTNnMnS1FZH5wCrEJGfJgx539SuRpLQyS/9EwoA8XNlLd6SkW8GtQb3kRv9Q3NlhJbeXb83S9Uf1FaAdDO+wVCauP/hTPabwbH0pqUFQxROOGMrPKIWR+Bkt3p+zPvI0ec1wPgBG4G4GwKpKVxhEZ+GZKnoc/XyHmhjAYJ1h0bsHVECtBibTcEeh0B7GUAc9NNtw4l41nqjanUIjYppdbx2eMCbvZecPYb9/h8frMals2mGoTPX+95oYzefrds7TIrFJJKxSCRA0/Mqoloz/NPZ7l6ntViNpwwNdMB4mB6CFmNmLga/TIi1j/XC+DGQkKDA0+ys+5H5uu2qoMtL6BlkVCnMKr8ar9dBM6AFLDw3JwXmC79ArtU/ry0k/9J7+i4xi4JOAkwirCkFfPl1qPCRqxWH3ozKxU9QMyp/xFWeGIgYStICI0ShnUNFyJ2aNv8DdMm+XoD7EJE42a6Bu6jDkxPN9H8bSULde/t+1J1LJTRXswle7PWYHenubIArbdxzWiytHpjZgo50rBUXfXttLUNwrOtBL9KwIzg+u9XylH5HjiivbPdJYANPGVXYC5vjKaxFgkqwIoDb9lhh50UYBww8A4AS6v1SNDAkjm6OE17awpY4If58+IvZG5Bn4/7M88LBhpzLfr7nD/9WNh54cpvqCHljfhufdf4tA1staVd25F9Vgw8LS2tkWOhPXqoijyDlOKCGLRd6AkWWPWw5a7/iMQwqcFSVUyY66lVjHLZYCal7fu3YMhBI+bHeE9ECCIbSYHyhHGjKK8Y7wVX6oalDmvbhqooxrqJebTIv9EW/BcHhTIaQhukoiZsvCNPkbvaEh/dSIw0TgumQmVP8da8mNnU+XBLzGh0DANPS0tr5Fio6DYrFxUyQ0Fe5erxCOWVMdDSq+HsaeZpWQSehTLa92IUnRh8L0bU9sZvHJc5UK7B1W/m7mlhOHiaeVra/UaOhTLaLxNNKROMfSYecTTkGQ8aQai/PouRyLx00MCMKL6+nmaVdkj0z9R6XiijvXcm7ztPfj0wHiGPXK2VHmj5wPGwT2a19jTIUrt/Gytv1uLz13NeKKNNC6YC5qaMK8Pc+YWVIRUnw8f+Ofh+43ytco1fGxzNoQLueRvYeJp5WhZBi0IZ7a1h+FVTa5xxElx3bmYoIfritO+EbZZT21MVgWRflAEuB58Sdjm2CBPGXXD3jhKrG70emhnE/nFL7+2xUEYzd8XpDxAvZZagkJL9Y7Jk20ibp0IUxDjfqGSPLjZXHahA3cHhzPODuLZxGVxnaM+2mO4YP2zgFjeH6bOaHSB+vtp1ofNoXrbgmmysQQG55/rwKYG4Ihjx+YDKMZ/PdsHFiXDUZ8OWkliSsJzRslM9IC6vL69pqGyFydZTY8YHo4ivD/b4mT/OD1JkoZ9XTH3cty+nkXPtd8VvzD7le7q8ZlSo1urlYWd5+9hXSO3+TzAeEaNYpmLguZVqVSKon95ALFbK6hY/V+Y10yTiwbDtswvRdmPUuqaziBiYhdx2eRalEt/nmuc++e/Z5jyYXS/5m1TO3qeVsl831YEA7MBvk/68D5n5qmOGJMSW8Fg+VFYJsG+v0F5CuM4y7fGNWMUqvcfuYWIdqT2WvTuJ1a62jTQfRsO/vPjm6qHC/sNnGEymfzlfvFt96j2WxmgqwjcsGHcN0DR/q+NWLUAoDR4etNBawmpYVYGYXzK3uN5OryVGjF0MvVcur/7MjQk7olGbrSAvb1e6ytLJf9Z97dUtl4gQVlQ0lMpoKvsBFUE+oA7nP/tw1+OaxCa8w+5K7NHh0wbsaOQtSJ4oxF3R03FULNV3+d0FfL68c0KF+Pjp3keHnmvKUZwfxQonBYvqaGRPqgLKZw1rBaxkhBD7j5bSSK/XIa8MKJ3RiG4WrPm9PXHF4dvN+8ZGLYgSpIcYRQHi+xmm2fpncSCw9SJOf79A3eexc5wthAWz4MC8a3aPI25MvrOBYshw4d2JPl8t50iH4/66+yceUDyv0XHalvLUUk49eUpnNJUhXOfIs7tvz8xYBANu/1k2xaqn4j4vKzQQ8QQ0wHjTCywPrkF2LiRkyZtouc/89iAdYlgLbct67TnqiF1g6bwgkhu1PSOFCOSnQfk6Miu56aLymAw+TWG0EQ5iTlKG+6UzEI+pBEtY8j6VZM/XckRrZ5rC6kT7PoU9R69k03M+TArwwVHyxdIAnzD5iEdPOR7C07X/E7LEGqv99RfjfrMyOG8RQu1vqJ6zqYymOqxYPFoVEP9pAdLpPSgyII1orDQVI381QIrw4RW+pRXvPGDOBDNJWlmMt/R6wm4bFaFMmRhaaNxIG9+DeR9DAJ9UaNZGNU1ntBGVpSd8P2PYCEvJjojaJxYFYrAWa/XyxggPwXmX35oxe5ta8vQd7HxPA+st0LDAhRg2ho+d9u05FFA2uLB6pDfRpDzfW+gzRluF6XWINR9HZvfsCOO7DCXKEMyr9Wq4Vg4964ipWQQqy3jnTguSxPLUeuwKx9WZAB46DCYoWPEY78tiIR3Dkw/S9/fLPu9zRhuCGPT5PjTTjVqWvaCxQzR+9JJagZ5nuxAw361HRNNjaZj8aonQRDNnOkkAY9F261rxtXz9htFWIY7skIu4JVKSOXOsVPm8nENQ/LtYoapNo+Jnq10z7cJax7y6WgNEiWNuzZJZhoFqi++rvbvI+/2S0TGCiEkYzo8YbsbBlF2ZeCy2xLhrRn29PH4f1/TecScG40lqRQjKImP7igfWGk6UwUXMGlJ1KSJtQDA6RnTI+rrS4YAQdO8/eejzMf/FmZC3cZ3P689R2HCuoFDFgK6wbIE2plvCl+v6u0fN1x9GD/EJA+GcQHrGPn6YEnENsvrQhy6xHJcf2i2f9K1myWLn/MOn6FRIZwMx4BvGTo8tvR7TbVxOX18POEZ7gkH4xbPDD82X9U1+JSKMo9djCmU3BQt0sDKwVo3XqRemTz/XRUnrGgauKt6TZO9u9lF9KMX7o5uNhH8fGvyhHw/atXdKMIbO/u/g4SI/zpaJZ6ltW3UAAxi8ZJ5az67oe03Z6lTEcUCO0bUiTlDexDOC9u6feUTFOa07FtNsQ8GuC/VM13y5/fl8QI7RtRKUvUF+/rXgOZukPde2VWb/Lw9Mi27Wnl7rboX+2YF0PqDH6FoIjQsQ2zKfNsaJYeIc3zXOi7n/O7CVrFpoQJ6WZzRIorTd+BPttSq2J39OLWLK5Fnnq2FDxXW7QFsw2piJxara5xIsb6sd1frbgXagQIfR7cBlxbHD6A6j24QCbYJmp0d3GN0mFGgTNDs9usPoNqFAm6DZ6dEdRrcJBdoEzU6P7jC6TSjQJmh2enSH0W1CgTZBs9OjO4xuEwq0CZqdHt0mjP5/OJSBS2EtcFoAAAAASUVORK5CYII=;" vertex="1" parent="1">
          <mxGeometry x="230" y="208" width="122" height="120" as="geometry" />
        </mxCell>
        <mxCell id="g41ISQYCcfccL3WQsRhH-13" value="" style="edgeStyle=orthogonalEdgeStyle;rounded=0;orthogonalLoop=1;jettySize=auto;html=1;" edge="1" parent="1" source="g41ISQYCcfccL3WQsRhH-9" target="g41ISQYCcfccL3WQsRhH-12">
          <mxGeometry relative="1" as="geometry" />
        </mxCell>
        <mxCell id="g41ISQYCcfccL3WQsRhH-18" value="S3 Origin" style="edgeStyle=orthogonalEdgeStyle;rounded=0;orthogonalLoop=1;jettySize=auto;html=1;" edge="1" parent="1" source="g41ISQYCcfccL3WQsRhH-9" target="g41ISQYCcfccL3WQsRhH-16">
          <mxGeometry relative="1" as="geometry" />
        </mxCell>
        <mxCell id="g41ISQYCcfccL3WQsRhH-9" value="Cloudfront" style="shape=image;verticalLabelPosition=bottom;labelBackgroundColor=default;verticalAlign=top;aspect=fixed;imageAspect=0;image=data:image/png,iVBORw0KGgoAAAANSUhEUgAAAHgAAAB6CAYAAAB0rJfZAAAAAXNSR0IArs4c6QAAAIRlWElmTU0AKgAAAAgABQESAAMAAAABAAEAAAEaAAUAAAABAAAASgEbAAUAAAABAAAAUgEoAAMAAAABAAIAAIdpAAQAAAABAAAAWgAAAAAAAACQAAAAAQAAAJAAAAABAAOgAQADAAAAAQABAACgAgAEAAAAAQAAAHigAwAEAAAAAQAAAHoAAAAAYBrnGwAAAAlwSFlzAAAWJQAAFiUBSVIk8AAAFiRJREFUeAHtnQn4XcMVwE/sW+xBBI1dYifE1oi1Grtamtp1oaotii60qtXW1u3rV6Wr2lq0qCU+FAlij11iiSS2ECFiib3S8/uP4573/m9/c+97ue75vvfm3pm5c2fmzJw528wVKSDXPdDnrN1nz851Cz/ljZvrU97+3De/QHDOUVwguEBwznsg580rZnCB4Jz3QM6bV8zgAsE574GcN6+YwQWCc94DOW9eMYMLBOe8B3LevGIGFwjOeQ/kvHnFDC4QnPMeyHnzihmccwTPk6f29V1apN/K+hsoskR/kUWWCr8FFxGZZ379zRda++H7IvzeeUNk1msib74qMuN5kVefE3l5kt6/kp9emaMRvNBiIitvLLLS+vpbV5G5ZGOImW9BEX48v9SKvZ8B4S+MF5nygMikcToQXu+dZ06JmeN8suZfWGSNLUTW+qzICmuLzDV3ul2Nx9oLE0TG3yLyxFiR999O932xS59jELzkCiIb7SIyeBuReZXcVoO3lew+dYfIa1PD743pipR3kt/sj0TmVrrFDF5w0UDCF1tWZMkBgbz3X13LX6By6R+8JzJhjMi4qwJJr5yru2K7HsFLrSSy1f4iqw3t3XEg691Ziqi+pWnMtFv+HNbX0pT6d1CE/msoyV8vkP4Ba4n0KWNFmdVP3yNy+0W6bj9bv8xO5uhaBLOefvYgkUHDenfw9ClKMkeLPH6rIvitMLM3/YII5NvgPSWlo/8i8uhNFtNaCOM2eLjI2tsq47Z8aRkMMGb0ree3NphKS0vnrvsQ3Edkg88rcg8MZNSazayZdF8gj889YrFJCLllQKyznQ4ILcPgSSXXN54dBoLFNRsyo1fbLNQL0l4ODKY7LhZ5YJQISO8m6CoEL7qMyM7fEVl+zdIumny/yG0XiEyfXBpf6W55Jamf+2ZYU0lH5LngGOWE30xyIy6tuK7I4ssFJo11mkEDNfDAurzXj0RYoxsBmLFRvxZ54+VGcmeTp2sQDGe84zdKyeyMF0T+e07o/Ga6Y+55RYYdLLL+TiKXniQy9fHwNMzT0H0CSS9n1D76XyD5DKS3ZoT8cykzdsTfStf4Dz8QeelJkecfC0wc5TEQDGDobvi9cty3W0xnw84jWMnp1oeIDNk96Qg6++5/6e8ykf99mMQ3e9W3n85gnZ0ASo+9fhiUICGm8v/bM0Wu+Jki8amQvt3hImtupZz5nSIT7xZ59mGtkyLZAI4cJA/du1Rku/eKQHU6TbI7imBI5YhjRVbX9c3g9Wki1/5S5EWdJbGA94w8XWSZlZMSX3lGKcOjYQAtt1qQqS0VUetCXSoYHDBuH7wrwqCrBcutHpYXyL4BPMPVZwStmcVlHXYMwTArXzhZ11tdMw2evlfkut+IvDfLYuKEm+0rsuWXQlmQWJguFBceBgwW2fUEkYUXD7FP3SVy1Wk+R/1r2sSAXXWTJC/r8hWnxm9T8obaV3PVTk4ntQe5Py5F7rirRa78efyOQIZFQWJw8x97I5c0VJNXKmk2kgpVgelrBlh/aQPk2WDAIJF9TlGJYCGLyTbMHMGQSzhTzymPVkYGmVVmx288Ig4iFAD5f+TGcF3pn3X3aSWrBui5mwZtw61/1/b8NXlyWV0CWP9pe9aQOYJHqMjCqDa4+U8q2/7H7uKHfhYaN13rLcxkg8WanMH2HCHqTJYC231Nm3c5XhP6+FzpX2eKYESX1TdPGjXmPFUOXJvcp3GVcX+WNOHhG0TGKHUyYG0edpDdZRNmhmAQu8meSaPuv0bkviuT+7SuXndKB8/QVXufzxNDYcFMvufy5G30AWJXVpAJgpFHUWIYTB6nxgDW3AwAccs0VGikUGVWg2VXVZXkpknq5AeS63auUJ4gMhnscGTzDJw922yYPoKVRu6sosMCi4SqoRYcpaJQGgxVzxv0fdsfIYJoBMAVQy0MUFxgSy6H/qoe3ePExLAx8R5lyl4qz9XivTJeyPYzXwzPz68cNX2SxXo8T4tVbvgx1IXGVKEsuOZMnVFvNvx4UxkRiT5/dLBA8SAkdvzoILasoUvE0p8JnCz67iFKKtE/f6SaMpQU6KbNSIHeGnNjTECEuvZXqnBR2RqTJEsBRpUHR8V8S++yUp3BCy+hFp4Dkpfe95+4GqqkZL3SmbvLcQlyScPjA/hQDfWXq7IBnyuDZVcJ6lHMjNh+DblosZCHY6y/9i4LEcPuutTugsWsUTej5KnmrlJFMCY/s9FiOLjjH81Vrpnc2yvpxWBhAHeO0t8AtePFJyhjp4MMh7tygJQ/fpuqKJV0NiJOlT/f6P3d/9aB9nzIjcJny/0bfbK1fKmRaFxsBg9PKoXg75X0SUr7V6y3LAUGcK5e0WDxkEnEFgbaZ9ZXM6DqjSGXmBSfeajUuW7Q1srtbhk0U/Z8jJAl4aZzRfb9aSht7W2CzIxuPA1IDcG42ZirC50H55wGIH5tMTIpmTW3EnKTHMF4MPFuH1N6vdt3E3kdrrtdr5DS0sPaD1e9ypDQR9S/Wb13eZnV7lMh0dhH8YAwuO18u4ob4kKz07eS9RM31+t/1/47jIRSEsqZBfq2X2Z5CYhOpuVCNCt3ByrP3+p9KgjecOek05m9055utXrVn8MOi/WHdQx4TUWQa86qb9YLuWv/Y4dGbw2gxzZLVIiJ8w9JNtkYSjdkjzjllpcSHcFYTXBtNbhHmYo0AP+rfgNDyTBNkLhYZkbKu+mPSa3X3SGs10lMnCtvdcK5sJq7bjtvi45gGJNPZtXU4AHRTgUrPYv4s9GuSQpasdhMCjwD3hsA1CKNWYxhY/qUnlf0IDcNFWZ8BG8VKsx/bObESh5+WLIE4CTw8PWWEjdknTRA+4WiJDb4PoKjjg1REcxenxXXCVWEgSj3mohVeTwk8LhAx4xJLi1AMcF7ABQhm6SwTk64NahTeQfarXInfuLbgagIHrhR4ngGY2Xeie1UsNKz7AhkzT3/6PQdzmG4DNbUWRxb88TGthceD29AJl9FTYoxIaocjMrPgK0drQKGifV2DI3Fia2PNhxN1JQHAzk2NWIW2zwZqDjnQZlYi5EQPOlutY3+OfpqhcEhBgXMYzf71Pau4yJ43aQyiEetwFrKTW73tcT6ZGUspOIK5rwhu4nceWlwqbW0tEPUm7b0wFGPVU0YGqlYYMwc5eH8FxOikWj8jtnHA+C52Irsi3XFmxZDaaX/OLWjJcMkmBVMUkbOqAZy8Sobx30znDRqVGBRtZ1bP4aY9v6jIdhkUqrzspK1Zkc4jmnbfCVpDMYJzGvnHCpy9oFqDfqp7iZQscIA3fPg4XaXfvjYLck71t4uuY5xhaHDHO0pj1MKYkE0BHsRohWZFF8lmAwAX2Icz9k9CEOFfRa59JITS9enrRTx9kx4Mr1/j+CVlZmMrb585dmk7kuvmFy3exUNwX5/zgxVcJSAihiIUAwC1jI4RYzsBtiNMbgDbFVhAxe7CXqBil7sVeKIBaCvLgu2NoaY9P7x7jAzIsxWSy61NarnbdVY4mJBNCYLJBng+8Ts6qcIXby/qvmWUQ5U104P48foLgZFJMDWETO4s6nL1ruQWvqPGvHJsSIbK7MFMFBaZehCCY3/48ZjTnl4SE4Y3fiz9XL6NsPPxIJoCPby4YYj6lePWWCwoM5uA99QiysP8esyMKd2u08zRJwxt9eBG4blod6epUbr43UGvi8bfb5aPtfN1bI0Fm97eirlRquFH1bPevqGcoxKfj1T4X20Ghm9vgPMY5L3cmIOVqVmGbxKda4Ux1FLWJmgUDjOQT2MbFfK30wcuxoNYg7aaAieb2GrniokHlAETgxnTnEYCt6Eldxk7Ilpk+wqrKmQewZDJYCp8q45XhxjSwwWGZgznM5bYfYqvdPHofSwDeGQ61gI5oAXg5hbXKIxWZ7kItKMvSjsqaWTayGXRqGlso6icezQZ/N1JRh2SNLBb7+uFp+HQi46GxkSXS7apoN/K7L3KfGZITh8A/MWtft2Qt9HXYlg25XXaiO9hwNiyMhfiLDOMXAwiEMO9/iBMle7Jm+485+B6yYG5z4z0lsO1H5s+tr/rFCWxbcTTnUI9hvo2ikzzWerzJPmX8kINDswHDOuqs0A3DPOcGZ3BaHsH+5xa9E13Py7rEw8IB+8zu6CnPznw1Wnq2LYBjsFnyqTkeHSKQvyyma3dkg3Chi0TrR1ocWVYiiDGOMkPE8B2znVIOmRcBWNRHsS06pnAj7DIMCXhfjkkQulwGsSWbkSPK9IxHUHZJPPr23IzAeqdmzbr7bnPQGzZbBUJJl1Xh0wBr7OFtdqGA3BHOxpgFKjVcCf+a9Hht0IOL/haosogvgE43TBscFrst6SgKUJ78q/HBF2MNqsYFazRh/yu+A620o9vVNeLKUExhQD35cW12oYjUQjx9nBnohM7ZwAB3LYRM2vB3QWt7qXCW4cqsAWEXTdrOsADBlMGGdbjdGBYAMgpNb+n/Fckh7LG9IrirzIlLyptatoM9gL6mivooKuwe0Ca+e/FaFXnynC9hQDlDIjzwhnZllcvdBUpeTziKn3XK10E73I4xU5tZ5pJC0agl/TDjTwemmLazRkhqGGhFlqdS2v9S7UnOcdFUQ4y8c+pQN+mcxui68Wehk9FoI9JbBdiNXe30x8NAR7ztRblpqpDHkHDRfBqW6/U8P5kM0+30h+1rirTlfDxbnK0OkaDyBm7XlSqbdmSOn9P8tpnWpp8Ho/WT1mGR1kBt7wYHGthtHW4OnPJFVAxJEW101EGgOvzrS4mOFDKma9+ITI7t8PazIM2DZfDoqUWttHoVYwgvhhx/LF9gj22rl22xttBsPl2jqMnnbplZqvGrKlkSo45+lTmi+j2Sc4wv/C44IN2p7l2CXOuzI52uItpG6oYNGkNcOc2fPlIUcmmzcl/EEjBpfyMqrdR0MwL0BZYWDcqt03EuLJYGZDSD4iUhaAouIy1XihPDFAm+YZH4tnzcVvivaBmBjA5wgMkONjQjQSTaVwHrPjEeigZg9Z8Wt3FrPXdyQzERch1mfOhobjZpYarLqpHguxT1CZWhwhDBfyOdtQKjop+MxVrinbILZtOyqCsZfO/nrQPLG9pFk1npFnGhuT0bDOqxuqOIbMjBelkUmMHjseWZ3hY0Zvvp8O7GG6l/hUPerfSRN136cZYO7sJALUsrYhrZFnG8kTlUSzJk1VpgVg/Vpzi3Dd6D/KBwN//JHFZRUacnlfOXLhunH+4wxr4znIx2d89v5J83Ix+5FMD82JQG+9SmnxIOoMploccW9mtHV2KDUI1Ku2MRrk87JmvefSSod0Qq4NIMVo1zznzEkAuPDCIOIjhp6bE2YbBX+sE3bs2BB1BlM59tqYshwFAscTNQr+kO5mrVGNvqOZfKy5BiCXfVAeuaQxoDlf2nTjOCM0qujBkZ+zNAEoA2XFhugI5rtCaIsM/EHfFlc1dLWJ5etU9V11Elhbe+R5zUfnf6IXr/AcnK9tUiPZM00Vsn8StfHun1wK35bw7kdJSntXrkvbK8g/fe+VH9txNZIzNMwI4fNUuvZcaLkXZqX8acZ5ho8j/Mtnbvm7cVMyWGKAXVUPKX8tXX8NxmmfpQGpIBhLknGDyLVmxK/XAI9gvjXYSfBuM7bk1KqPzzPPvLVyhjQOXjE7N4Pj5cn1n2klRyoIpiK40/R4Y+g1s9hEgVqV9Aj2DFetZ9JK8xajfgPrv8Xn8dx1pSfhS0xfQDof2EoLUkMw+lQYLgO4SxuxFlceejso7jCdBORwMyrgpssZGtWA7a7rbJ+k+t2CSWy4QnzcQXUFBqy90ybaXfwwNQRT1dsvTDhqRjjHBtaCmdOS1HYO405KaeNKlQ7+aIjtFSmVqBDIxVhhHhn4ZdfSRqEUsdkOWee0+zQhuhzsK4s77NiL1fx3aIjdfN+wNlf7wBX7fwz810ssLusQ9SMzFwcG5FxOp4NbZs1kOUF3zsw15CIqoQkzkam8vohFfpBzegB9lCakOoOp+P1XByd4ruGMdz2+uiHfu73GUuTz3lYBJCLj2prKEmMf8OLE2k33KkUup/1MUQ1XJcB5gZNwzULFxgB/UHilZ2LEpY5gRvMoVeLbBmfEA06nqwTocc38huqv05w0dcSDkq2sfBirGkCWLz+1+ucJGBichGviIqSZzwdVm+nV3tNKfKok2iqEVYZtnyOOCTHMAk5ZZfeDB8yDkG8UDHQKJM1/JMPnzfIatSkeIHhQosRgkCJGoTeGoWLNrYWsrXWJ4lxKgxv/kN33hzNBMA1DDYd4YDsPUQPSceUHYqNwNw0SOu1uQLAhhtnsfaItnpABiV4aLZ73695gROluDNo7YbR/Mt3r1Em0rz5uMP7UWUQnr2wnLy40BpW4VkvrppCDVw87W9fYb5eKS/hf00YD2n6z9kGWkCmCIWO4rcJgAGi5djwqOKKHmLC9xK7ZieA1ShbfqRCN3G7fE+GkHb/FEznZuH5078xmuOUe2V/bCECZaHstUh5yxv3PFMFUHc70XyercD8pNAQk0xGcCADAsVoayMV9tlsAEswn7/iCjMmy1I3jCM1QgJsP+6A47d6A9uAh4jV1lpZ2mDmCaRCKe5DsvSaH6ohHYYA4wbFFBv7LpBbXiRCvR/PRwq2HjWwGmDYfut7uSrfEsC0Wf696xork6bhXHUEwTWBX/yUnla7Jqw0VOejX6q04M2kk6xskr9MweHhSA87qKCe1WJzKAYPLZT/qHHKpT0e7jpGPIsF/1witkT8vCy0R+3w7CSgnvC7ae16wjOCoz2cAPODXxZdIPUft07O6zkxMqtYgZgLcNdwzaxsk2rQ99gxuM97eavFZhVjDzPgx86XkHGkGHu46fi8WCh3kXD8Isqpnpfd0HMFWKXyS4a7RcplPl6VBumFqpk+xmGxDxB2DR24IRynBUfvDV0nH4XCULjFep27PdSrs2BfAqzZYuWo2n23xxeTEAPJiW8YtFwOAnedRtYyICZz9MfK0pEAGod9eQwqzFq3c/dfqjdazm6D7EPxx7+ATxZlUg4YHedl3GjMZU94Td8Q5PsGXXX7NhjSvZvTpLC8ccYhZtBu8QH3d7LprEWwVxCSHDRUybdtaLA3HPMQVfJSfebC9szesTDh2RCJ2ZnBcYaWDVkDsk2p84MgJv6vSyuimsOsRbJ2F+XAjXQuZ0d691tIJkTUhoRgses7nUoaImYVDPhYcjBkMEqxUlMGBojjb85VwXF0xboDcauWjqGDGYgL121p8Hbrteo5BsHUcWz34sgtbRdBVl89qyxcrhEpwNtb40cGQYGbPWOWnXc4ch2DfIRz2wnciIKfs+GNnQQzgjBCQikYN8m9qyBhlZ13GHI3g8s7inEs4XMgttltOTodZwzAA2cWjBG4cBQskm9kIMvEkYT8S6ykkvlsZpvL2NnLfNXJwI5WtlwcD/ET9FZD0gPKMBeS5BwoE5xm72rYCwQWCc94DOW9eMYMLBOe8B3LevGIGFwjOeQ/kvHnFDC4QnPMeyHnzihlcIDjnPZDz5hUzuEBwznsg580rZnCB4Jz3QM6bV8zgnCO4aF7Oe+D/zxiVRRcW9ukAAAAASUVORK5CYII=;" vertex="1" parent="1">
          <mxGeometry x="540" y="206" width="120" height="122" as="geometry" />
        </mxCell>
        <mxCell id="g41ISQYCcfccL3WQsRhH-12" value="Certificate Manager" style="shape=image;verticalLabelPosition=bottom;labelBackgroundColor=default;verticalAlign=top;aspect=fixed;imageAspect=0;image=data:image/png,iVBORw0KGgoAAAANSUhEUgAAAHoAAAB6CAYAAABwWUfkAAAAAXNSR0IArs4c6QAAAIRlWElmTU0AKgAAAAgABQESAAMAAAABAAEAAAEaAAUAAAABAAAASgEbAAUAAAABAAAAUgEoAAMAAAABAAIAAIdpAAQAAAABAAAAWgAAAAAAAACQAAAAAQAAAJAAAAABAAOgAQADAAAAAQABAACgAgAEAAAAAQAAAHqgAwAEAAAAAQAAAHoAAAAAtCZ33AAAAAlwSFlzAAAWJQAAFiUBSVIk8AAACS5JREFUeAHtnQlsFFUYx7/tHm2B0t1SKF1ouUQJXpFgvEhQ0ZgoeESMaERQQQmoJB5BIioYzijRRBHlSOSIaDxQ8Y53VFTwQERFBJEKbWmlCy3Lbrfd9X1vO9OlZWdn6ezuvPe+l0znzbxrvv9vvzcz773dAlBQQgEHWrl75NiYEtYqauSQre848hS1XTmzCbQiyAk0gVZEAUXMJI8m0IoooIiZ5NEEWhEFFDGTPJpAK6KAImaSRxNoRRRQxEzyaAKtiAKKmEkeTaAVUUARM8mjCbQiCihiJnk0gVZEAUXMdFlpp2/6reC95VpwuN1WVqtcXbFIBALrNkLD8nWW2W5p102QreGCjuKdeJ01lbXVYilo8mTr2FitpaVdd6KZe84dl3hIcZMKDN6yyWTO9LJZ6tHpNU25s6kAgc6m2jlsi0DnUPxsNk2gs6l2Dtsi0DkUP5tNE+hsqp3DtjL2elV86/U5NIua7qhAxkD3umdyx7boOIcKUNedQ/Gz2XTGPDqw5rVs2iFNW95J4zNiS8ZAH3p2TUYuWPZKMwWaum7ZPzlt9hFoAq2IAoqYqZRHuwf0g8r3XoTKTavBXelXBHHcTKVAl9w9CVy9e4Grbx/AZU8qBWVAe4YOhG6jz9fZdr/0QnAPrtSPZY8oA9o39WZwOPgPJXKmGPfdfqPsfHX7lADNvfniuDfHYu2/htn98lHK3KuVAO2bcpPuzUc//QaCX2+Ne3VeHngV8WrpQXtOYffmSy7gYNGbA6tehga2aaHHFaPB1a9MO5R2Lz1o39R2bw5+thma/9oL4V93QvC7nzlUh8sJ3sk3SAtYM0xq0B29uWHVBs1uCKxu9+qisWPAVdZbT5MxIjVo75QJ+r05+Pm30Lxrr84w9NMOOPbjr/zY4XJB8SS5F0pkbPZKVzTDEUdBPn9ydlf44/vKfsDjA/zg9Bbz1vHe3LDypU5Xgl5dOGI+P198w1XQY8xFEKk6AJF9bEvcV1VD7FioU3mRTggHGgc6Cs8f0QbVz0e6Ugne0Zu1/Me+3wah7X9AwZnD+ClniRdwKzh7uJZF37fUH9I/AHiv157c9Qw2jwgFOn/4UChbMtu0pNFQGMK/7YL/lq5MWqZuwTPQe8694Bk6CPLyPUnzuUpLALfCEWdA0bjLoOqaKdBSU5c0v90ShAKNXyfFbjhxhAvPRfbXMm/bH+9u/2nrdlnX21pbn1LvyO59cOC2B3g+fCBzscmO+G2gvG3Pjvv1Pe6rwLFIC+AmUhAKND5M1S98FkpnzwAHG+zAEGH3z+rpD0Prf4Eu695SWwe4hbZs0+vCd2z/8wv5RAiejDVH4OBDi1l7DXoeESLCPXU3vvkR1M17GmKtrVxfD5uY8K9YAs4+vSzX21VRDv4XFuuQo+FmqHlgPgS/2mJ5W5muUDjQKEjTe5/BwTlPQqwlDhvnlv0rGJDyPpbp5R7QP15nWSmvMxoKQe19j8OxzT9a1kY2KxISNAp09OOvoHbWInavjHC98D7qX7kE0Au7GnD6svwF1l2zhy8MUfZqVTNzHuBTuqhBWNAoePDL76Dm/vmAXSoGF/M+7Mbdgyr48cn8wZkuP0Lu5ePFo0eDUHPPYxBqG1w5mTrtUEZo0CggdqU1M+dyr8NjV6mPgVrEXpcG4mFawXPaEChfvlAfaIk2HYVqhLztt7TqsWNm4UGjqKEftkP13Y9CtCnINXb6iqFssfn3bQ1MnwUPgrO4iB+2HmmC6hmPQJgNqMgQpACNIMK//A4HH12qM8nr2V2Pm404e/bQsx6c8wQfbNFPCB6RBjRyyCtqhxvesSttNDiKpoW8onbo2jmR91KBzj/9VJ0FjmGnG8I7/tSLFCTUpZ8UOCIVaG1yAnmEt+/shKX7ZaOg4q1VfMN4x5Do0Ykfmo75RDwWagjUSGAHm5DQnrRxPDzRO139y6F01jToxma9tFC2aBYEr74c6pcsh5b9Nfx0KMGjPcOGADiZH7RGtSJC76XxaHw1wgUEGCJ7/wV8/wW3C3ApUcUry46DrBHrdsEI6M/SvHewZb+sbDRwhE2QxKHjTBauUJElSAO64MzTdCb4SlR43jkcsO9Otp7bE/8RWhwfP/zy23D4lU36WDkCLZl2C/Tf8AwUjDzruCft/OHt93y9ckEj0nTd+W2LB5BDIfPUItYtJ4YQWxBYv/g5aN65h59u3PQJmwWbDtpDl2cgG9tevgBa6ttnpfA+3bjxg8RqhI1LA1oDhiTw+1VawIGPQ8vWxoGxe7cWmnfu5vPQPcdfCSXTJ0Jej/irGY6saSGxTu2cqHspum4nrv7o23kVZ+O7n0LV+GnQ+Mb7bCK5HbIOi5078uq7PE/Th1/op7WIe3AFOAoLtEOh91KA7vgV2OY9bNXIXbOhbu5TEG04nBIQLlrAac/qGXP4ujCtAC5ucPvlWNwvRdeNr1Khn3ewb0cOgMNrX4fA+o3stSg+V61BM7PHaciqCTPAxxb095xwNZ/MaP67ykxR2+eRAnSMTVMemPqQNWKztWANKzfwzZoK7VGLFF23PaS091UQaHvzsezqCLRlUtq7IgJtbz6WXR2BtkxKe1dky6duM/8pJtl/4TFTNtNIkl1bpts1qp882kgdidIItEQwjUyxZdfdla6vK2WNhBI9jTxadIImr59AmxRK9GwEWnSCJq/flvdoXOeVKuDEw4mCmbInKmd0LllbRmXslmZP0GydV6qQTHxcI2Z1SNaW1e1ksj7qujOpro3qtqVHN6zo/FNRZjXrSlmzbYiYz56gk9x/zQgsQzdrxs5081DXna5iguYn0IKCS/eyCXS6igman0ALCi7dyybQ6SomaH4CLSi4dC87Y69Xdljpka4Y6eY/mSlRHKLNxOhdqmu31KO1H3dL1Silp1bAai0tBR1Y/6b+S36pTaEcyRRAyIF17GtFFgb+H792jxx7gq8aWtgKVZVTBYZsfcdhqUfn1Bpq3FABAm0ojzyJBFoeloaWEGhDeeRJJNDysDS0hEAbyiNPIoGWh6WhJQTaUB55Egm0PCwNLSHQhvLIk0ig5WFpaAmBNpRHnkQCLQ9LQ0sItKE88iQSaHlYGlpCoA3lkSeRQMvD0tASAm0ojzyJBFoeloaWEGhDeSiRFBBMgf8BMOhQsK0O0xYAAAAASUVORK5CYII=;" vertex="1" parent="1">
          <mxGeometry x="539" y="30" width="122" height="122" as="geometry" />
        </mxCell>
        <mxCell id="g41ISQYCcfccL3WQsRhH-14" value="Hosted Zone" style="shape=image;verticalLabelPosition=bottom;labelBackgroundColor=default;verticalAlign=top;aspect=fixed;imageAspect=0;image=data:image/png,iVBORw0KGgoAAAANSUhEUgAAAEgAAABICAYAAABV7bNHAAAAAXNSR0IArs4c6QAAAIRlWElmTU0AKgAAAAgABQESAAMAAAABAAEAAAEaAAUAAAABAAAASgEbAAUAAAABAAAAUgEoAAMAAAABAAIAAIdpAAQAAAABAAAAWgAAAAAAAACQAAAAAQAAAJAAAAABAAOgAQADAAAAAQABAACgAgAEAAAAAQAAAEigAwAEAAAAAQAAAEgAAAAAggmnegAAAAlwSFlzAAAWJQAAFiUBSVIk8AAADChJREFUeAHtnAtwVNUZx7+TbB4Qik+oSBUfVGfU+pxAtT5Qa2kwj5EWB9uCWFp1ihXRRFBQV0UjSaBWbesDgU6rDKVUTXjIQ4z1gQVtp1UZasUqRWlttQWTGEiyp79zd8/N3Zvdu5uAJLvDndmc1/d99/v+93zfOfeccyNy4DqAwAEE+iIC1ZfqQ/alXveM1kNqy/XicaJz96Xc8Ch98N7Iy+kJ85wS/aVQrmyuK9MlPeH381x9ls7LL5QlSsn4kWUy29/e03JtmZ494CBZAUihnsroNkDmCefky5MYc4TkyLI55fqSnt7c8p0wVB5SIuc55RyZgWHfsW09TevK9SyVIzPhP6dooNzVUzndBmhEuVS7xoj0wx8a9sYgemG1KLnaawCGLQL4cm9dunnzAHHVnyDzbsuDvjNqynSpLXcnhTf9q6Zcj8tR8ptEHBEtD7fskqpwo2pK1O6vm3a27jd0sPyc+km2TWtppWcWmjL5dpJpVfXqIdueKuVBHQswi5Bxvp9Wi+zUHVJ883L1N39bUDltgO4bo7+SG5IN3LzICOSGa5SWoSh0sucGOyQis0FoUbhBtXjqPVmt5pRJBUDXIOvLboOWeiC5XkKyDpnDPfVr20Sm31Kv/uTW+TL0tiPpyVPR6XoLsCEB5N8h6yyMHBYrb27eJSPTfYiGJy2AwqP1oQMKZBPUxxkmrrfbm2VEa57oAXkyn/px0eroXxT7lNxqhL8aEdmG0u0gejjl07SSUquwy6NlwdsfyLWPvq7aasboI1RI6uEpdtvJIPM1krXwb1ER2Um+CFccTv0F5M+H3g3E1LVzjzsr6+WemjI5g7aX+dme+VRVvXwL08Ez9YWc4Mv49MhyWQUITjA2xnOzr1Y+ozZbTvz7Curq+B1p69JKtewCwGk316sFXvofl+iCo0LEuhyZioLdipPotwmZP5perwygzkVM+h66/cqWoQnjunfaclCaEiCMn5eTI9McIZoHqeWyqgb1jF+oiSlDDpcfoMi1/E7yt/vKn/D4FjRHZA6u+B9fm1usvVSfQm+aBe1lKJrvNvgz6EVVI7r9tKoBV03QOwBpLnrd6LBC36Fl7PQG9bRflL8cCFBNhZ7I4/ulZUoX+boKfRJP8UI68cn0vMHcJBfenaTvdERkw/YOeenBVWq3lZsqNZPSvJBcjIwzkTcMuQNIP2Ng2J6j5c8dSp6jx3wYJMd4AiPws4D09Rhdk26Xs6tWqDeD+JICVFuhR6LICyhSYASgXLd8N+imvdVmYmlRoWzE6OMdHbS827RbisOr1SfJdEro32ZUQMhTFhyY3yD6T0zUdZMJ7ov1Bgh6cAUP2wwiZog6rqhAlgbNtLsABHEhlcY3hxgZOPfHGqHdGRoNX1+9ZjSotzBqAj8TtwSXu2jAQLk/mb5dACo6SB6HyRliQbpdOuTbBOW/JxOQifVmkGG6cJuru5IpTDKvccueTFwMYsSqZMSq9bTPZzj/oaecRVmt6ipkCwadEDOqrb1dRs1YoV7xGhnXg9o7GCK1w+TQ0IMmEY8u9DJkS76u3HmRteCYQWilypU3/PbF9SDTGJs1ryeAnWbKMP5bWuWUqjXqI1POhss8dF511mG800Gw8dfN9XJlWJij+664HmTanEgvMgamf5oy8WgQk/QHTT4bLjOhBZyFHnBeYIS+KhE4xt4uAJlKM+kCSob16AVIl/Mm/zVbzuSU2f40wBlmbKAT/HfPbrmCEdqsHCS8EgJkKAFpLfFoseUCpFttPlPTWO+JvjZhBOP8zJmr1Y4ge5ICZJg6eCNGSnS+oKXkvjJ9dJCwvt525CDe4pUcbvTEqO2sXz2WSudAgOhFf0XgGkeIEoK8jE0lsC+34wUsc0QvJr+/CHItSxcIkCHCT5dbYsCKrhu7FZmVode4+gNWp10BZqQECD9rtPwEt9NtPtPS2d/QR6H/YUZvgPqY9aC/pGNDSoCam+UdKwjBX7T5TEvzCjt1B6it6eqfEiD8tBVgnAkU3bIoLDolT7o33890X7D3I2w02XyqNKWx4TLdH8SjdFp2J5tQpbpRr7dr+cyjgwuWpy5hNiVA/bzLp0reTyglAyrb93TqzgM/0awwpqN2SoAgcDfccDV3ITwd4X2JxkwIca0PHZ2UDBxR2jmiBekZCFAs3oy3AlgDXmnzmZgSQ139mdR9Nx0bAgHqX8ZugpITjSDz3pLT6qw0piO3T9Kw3rPQKoY3TDRLy7acLE0KkPFRwLnLMiLwZyx5NNtyJqbOYpiWl4zuxKF8gtAdqexIClBxuVwNQNH9LTb4WthzSiUsE9o7pPOhg9Jks6UepHdCgMIleiAI32kZca97gzb4LF0mpGaVAnuejemaGwrJ3CC9EwLEfvtMes+gGON729qTr/oHCe+rbdh2E7rRmbjYUg86CNYFoHsv1ocRb65zmPkT6ZAZ3dkFtXx9OTXnCuhFj1od2eFwvcXW2bQLQPkDZAoI948RvM55miWWOKvSVgljjzO7xt5idnQuSGRfHEBmh5HeM8USsmZSY/PZlppNCGxdaO0CpKk2703jAGLTcBTBeXCM4B8bG2SZlzjb8pw4c3dUsXsM86Iu72hxAAGAPflgJobLloqKBrJsQyZmj3McT0v05BqHNHK1nOs3NQ4gTnOMsASsbzxv89mc8vrU6NqXE3+qzdTHAcSQN9wSqzZ5y+azOlXyprUPr+k8MxmrjAMIAmdJ0rS1hCRwO8QKzfg0Et0gdexQcqjfnjiAiOQFLsGnssfNZ3GGkazzpJuOHvT0mhsHEKvZ7stofj85xEuYrfnc3E47Gcm6LMXGA+RZMQzlucdCshUbx65IpNNOetM2v7FxABGDokMeVLjbKD9xNpY5yODaCUCu/dbWOIBwsdW2gSF/Estk9LrsvcxWOhZe7FjIFrtui+0ie0yOA4gA9DQg7XLaGfI5ZOSe8PDwZE2WBbMwPSCKgZL101ep7X7j4gAy31cwQXzAQ1RndiQ95azJmiUOwsgka1BHh1TbvDeNA8g04Ic1xKJtDhEnIQr6Sf2+/rrQq0Bv5KvL9Rn0myeZGNsQ8vT05eq5RLp0AYgVt08BaCI/51AREk7n68LG6m/qYxIJyLQ6TrNeFBIxYBzs6K7lg91ark1mh0WwSzuCJtMFH/Og/AlD4nU3N6jFXYgzoCJ8ss7vf7zcxqh1C+oSfhxv2cmSzkXY9MdkJiQFyDAYkADoYYAC9OiFCzayWHlr1XK1wdb15TTMWYKicrkcO2Zj7PFWV+z4iCObpZUNapOtS5QGAmQYakv1KPz1CUCK20PCBV/mJgv4LTVumUh4b9aZwSW/QCbwSdX3vcA4Oml5lQAyvnKlej+VjikBMgKco8GFMgcwzM3i4hZAtUCylrbVrB692LxCNvfGAQfzCUVhkZzJQfhRuFEJ85tzEuhqHuTdG+tlXrprXWkBZEAyF99cnUpyG911rP/mDgF/AKyZ9k20v8LQuX7rDvm9+ZLQtu+r1GxN9c+T0dznfGSew+9Ubyjw3aeJdZ9HUKJ2Zr36l68tsNgtgKwkMwOlG03maZl9+xNsfZL0f4C2nAC/aPpyWc9LDJ2tZ5c5pXrEIBmbq2QCQi5E+fykkszMmIfE74mWNnkivEpFJ8BJGRI39Aggryjn4zktl5gnyRMspi1oYvke7Q/wtd/87sSt2AO5IRZPDvLe3+YBIsIkbgs6bGSy+3xbq6xNdcTX8galew2QX/jsUj2Ux3ouves8XO1S2o/x02CM+fpwXtMeuT/oyTKKHgsot9MVzDen7khq5VH/GvVrcJ8XIy2yYcY6tdO27at0nwPkVyz25eIVgHUlbdHJWYwIoD7md0fLTnnEeyTXzNyZnN6O8WYLKs8rE/qt9JTH+fBmyS0r1Lvets8j/7kDZJU2R/mKhGFXSSVgDbf1Tsp3p4w611Q9o/5gvlCmbh50g7w0ANPIpG5uS4Os3J+j5H4DyBprjtUUl8kEXPAO6o6x9QAQQRmzHnOWrTMpbvQy0WUWE9NGb/3+yu93gKxh5tv4o/Ocz7Rn0VvsVrdtNsCYf0hwE/vov3UreyHTawBZW81LcF4+Bwli/7iA+GK+zX+QpfRb+8KBrV4HKAqU83nkDbjZjZSvIhatswAeSD0IpHs018NyIHsAgT6OwP8BZTXGGy5iyCQAAAAASUVORK5CYII=;" vertex="1" parent="1">
          <mxGeometry x="255" y="60" width="72" height="72" as="geometry" />
        </mxCell>
        <mxCell id="g41ISQYCcfccL3WQsRhH-16" value="S3 Website Assets" style="shape=image;verticalLabelPosition=bottom;labelBackgroundColor=default;verticalAlign=top;aspect=fixed;imageAspect=0;image=data:image/png,iVBORw0KGgoAAAANSUhEUgAAAHoAAAB4CAYAAAA9kebvAAAAAXNSR0IArs4c6QAAAIRlWElmTU0AKgAAAAgABQESAAMAAAABAAEAAAEaAAUAAAABAAAASgEbAAUAAAABAAAAUgEoAAMAAAABAAIAAIdpAAQAAAABAAAAWgAAAAAAAACQAAAAAQAAAJAAAAABAAOgAQADAAAAAQABAACgAgAEAAAAAQAAAHqgAwAEAAAAAQAAAHgAAAAAzuYkvAAAAAlwSFlzAAAWJQAAFiUBSVIk8AAAEd1JREFUeAHtXQl4FdUVPtn3BJIQSAgJkLATlrAISJWdKm6o1K221q3Vqm21ivWril/7qVVbW21d+/kpftYFcMNSEGSTRdkCiuyBAAmQkJB9z0t6/hvuc94kL2J8c2cyb06+yX0zb97c5Z977rnnnHtuADE99EZSC1KH7NkCj/+8KCDQnlVzaqVvAQdofYvY9NwB2qbA6qvlAK1vEZueO0DbFFh9tRyg9S1i03MHaJsCq6+WA7S+RWx67gBtU2D11XKA1reITc8doG0KrL5aDtD6FrHpuQO0TYHVV8sBWt8iNj13gLYpsPpqOUDrW8Sm5w7QNgVWX61g/YWucB4XmULxMf0oLiqZYiP5iOhFMZE9KTwklsJD4/jgNCSGgoJCKSggmAIDQyiIj5aWZnK1NJLL1UjNzY3U4Kql+oYKquWjrqGcquvPUGXtKaqoaT3Kqo5RceURamyq6QrN0mEZLQ10ZFg8pcRniSOZ06RuAymBAQ4JjuiwUt6+DAgIokAKopCgcHFLJP5H9fZ2u/s6gC+uyKWTZ3bz8TWd4LSofL94cdw3WfyDpYCOCk+kzOQp1K/nBOrLR4+4AZZovtjIXsw5elH/Xue7y1PfWEXHTm+jvMLNlHtqA+Wf3k4t/GdVMh1o9NCsvlfQ4D6zKDVhNAUEBHxnW1XUFFJJ5WEqr85nNlvIx0lmuYXMgssFC64DK26sZBbdwKy6SbBpF7PqQPRowcZb2XloUMRZVh8j0qiwBAGoGA4Y2PjodIqPZQ5ylgNoCxYWEk0DUqaIYyZ/UV1XQgdPrKZvji6j/QWryNXcoL3d9M+mAI1GGtV/HmVnXEupiaO8NkJjUy2zSWaVJV+J9FTpN8xCD1NDU7XX33T0RXOLi5pdLmpytd5VS6VUXnOio59QAP/FMXsHd0mJH0EpCVnUO2EkdY9O8/hdVHiCqBPqhRdt99FPaOuBhZRfkuNxn1knovuocveFEHXB8LtpdMY1FBYS1abOruYmOlr0JR06sZaOMEssKNnJPaOxzX1WuIBe37fnROrfcxINTJ1BcXzeHuUX76TPv/kX9/SlprF2uPsqAToirDvNHPUgjcm8noJZEtZSk6tesLqv8z6iAwWrqZ5ZblekXt2H0rC0S2hEv7mUGNu/TRWKyvbTih1/pn35n7b5zugLSoAGe75o7AKKZLC1dKp0D2058AbtPLyky4KrrY/2c2piNo0f+DMawbKHfoawL38lfbj5PiFTaH9j5GdDgQ5mAeaqSX8Xb7i2EodPbaS1X/+Dck+u01625WdMDycOvoUmDrmNInh+LwmC27uf36GsDQwDOoSl2ZtmvCOmSLJyRWUHaNm2h1kyXSsv+U0aEdqNpo64l0G/laX+IFFvyB7vrL+d9hxbZng7AGhDVKBXTHzaDXJLS4vowf/8ZJpfggwUaxvK+CV/hF5cNpuKy3MFsNDU/WTyC6wEGmw40MjA50BDk4UpBqi52SXe2pU5j1tWehYFVfQPU8UXls3imcVWkSPG71mj/6Akd58D3U+jPdqe+zbPJz9WUpGukgk0au+su9Vd3P69Jrs/G/nB50A3NH5rAGjmebFDbVvAxYobSQ2KDCY+B7qErT2SslkxgvmlQ54tcDFPNyWVVHzbXvKaEanPgT5TmecuJ8agm2cuorQe49zX/PkDBLC5E59lGeZqdzNoO4b7ogEffA50eU2Bh+AFi9Rtsz+ii8Y8ymrPGAOq0DUe2Y9VpXddsprGDrjeo8AlrLtXQT43asC4X1p13EMNiLnj5GF3ChXoxr0vs0ZsIVt7ilXUz/Q8MpIvpAuG/ZoyUy5styyqerTPgUZtwL6lvhfzxsS4DFHJiLBuNGPUfJqS9Tvae/x/rP5cLPTbzWxKtBPBsjWy35VimtkjLtOjalW1RawWjXIbdc5oZBqPG318YhjQspxbDi6kwtK9NHvMI2zmGy4uw7CR1fdycdQ1VLIiZQ0bNlbS4ZMbvtNsKJ9rpRRjb5/EMaLXDk6dTcnxw9oUr9FVR1v2v05rvnqW5s/b5f6+S/foEo1AFh/dlzbueYkOfTKd0AjnD/2lh6dGeGgMA36ZOFB7cAMoFPKLd7AtdycVlu2znM9Wt6g+wr0pNXE09emRLUDWGy8kkjX1pWyXfpM27/u3MGTAti0dGapqT7NBp0reamhqeI+Oj+nrrsC+/BVsplsh/L5gk85Kv8zN1uVNuB/H6IxW7RpUqGeqjhLMfBBczlTl8ctwlHv+SaqoPsGeJBXypz5LA9mhEM6GsDl3i0oV5UWZesRmUM/uQ5jtRneYF3rvwYI1tOvIEh6iVnh4m8CjRpK2Q8hrRqWGA53ADaQnsKtVO58UR1LcIBrYe5pwyUlLGk+hwcJlz/0TuBbhGe09BzfBCwXWIPScGvbiRA+pZw+UhsZq9iSpZVci9iphxU2LUFIEsFGB3YgYyOCgEB4rIymMx8tQPiA/wNoEcyrs54Hf0wyA+XDuqfUsc6wRVilvihBPoNXModFOxgDNPVBSt+hU9gML9OoxCW9KHBv2vCgASEkYwawwm12MRgtlSyL3ouCgMPm4NilYJvLAoYogUBUyhyko2cVDTA47CW5htlx0TtnDTVmSKkEM+RkCdBOzLrjIwnMSggrYXyn7SH8XQfoWYzOPz5LwkoBtoucnsd8WAI2L7M1+XCmcpoieKO/1VQoTYqtv90l2QCygMh4i4IyI4aOo/IBwQOxsXgmxfd0/VaUVQ4aGAI0HQ6gC0CAAdS5Ai5t1/zAvx9iMA1MyPcH2DXYbzjbfiLA4YeCHkR+OD2DTQYHsxH82BfsGiNoDrL6OzYi19eXCnAhP0loeBoxy3U2M6e+uAl4eVWQY0BA04JsNguSdS+sNqVMjj8PlNTg69uY0JPNOPLR7TLr7Vyp7tM9VoLIWWp03erRDJJYOSWGzpu6MITMGb+2sBGhvErO3Qtn1OhYDSFKlKJH5KQHa6dGtzW3W+IzcDQO6hBUbkswGGgoOuDhFhfeQRTIl9ejRFXlKy2CYMAbJFUtTsIQVqzJgrjTDYjV95AO8OuQuMReHlu2rvA/oA/arNmMprFnKErxRhvVoPFyr4jOjV08acjtNG3mfW+ECLRusSnMnPIPiKSfbAu0hefMUSzXBj7o9GsFgQ92pmrRCqSqHA1lHQ3u0FmhtJWXmRqcwSrRH6NnnDfqFUKq0970R12Iikij07MLC2npW0LCSRiUpA9oM1l1YttdrW84Y9QDdf+U2doL4rVgb7fVGH32h1XGrnlqhCoYCbfYYvTLnCWpmFao3io7oQTPZgX7+VTk0Z9yfWCffx9utP/i69LjBg2wHNGzHkhI0qj95zegUnisLP7uOjrORBGbD0+UHacnGe2jploeorCrfnT1YKgS3++Z+Sdde8IqIvOD+0kcfPHq0IodAbdENm14hEzgGNHF4CbgORWOMYvuvNzuttlC+/HzwxNp213xtYbeerL5zeep1J5tDW11/4MQoXZzg5bJp7yu8CO6/zBW+dbjvbNnMlLhRZkNZNyxAWqtVdxMkb2/AALxdRxbT80un0eurrmFngfUet6YnjaPrLnyVfs/jOKI0wBnhh5AWaMwGEB5DJRkKNCpituR9Lo2JXv/aynn03MdTacehdwUXkr+D3Xt29h9p/tU7eb33c51m6wkaPTecKn518XK6dPwTbTxqZL6+TpUCHW/COP19GqywbA8t2XQPPb0km1bv+ivBeU8SHPqyM6+hO+YspzvnfEpjM284Z5CgetX7mcFVacLgm+mey9axg+FYmY1hqeFAmy15d6blqupO02e7nqKnGPDFG+4SLkPa54Dtzp30N3pw3m66grVsvRO8R1bC77Q6BPi5w2FQEnzAsZLlvEE3yUuGpGL5/Y/mRi0w5On8UIRlgtoRBE8OOO13FYJHCmKtbD34plhoEBQQwl6rmcJjBXWAkAnQxw28kYanX8qOhtFUWn28jQtv/+TJNDTtYlHtQywLvL3uFnZLOkAZvGQWPm/o3YNSZwonxryiL3zePJ9/WP2Y4T1aO0aboTTxVavBlw1s/S+LRnL0ggViqqZ9dk+OXDB7zMN0/1U7xMLCcQNuZDVrgrgloR33Iawbf37pVBF9UD4Hc/phaXPkqU/TADzNyDhjwYFhtOCGoyIiICIgPPpWH59MV3zaCp18GFaJjh3wU/ZPv9St3tQ+CvXNK9osfNrkFG7xxrspJ/c9923wabt+ymu8uAHxB4kdEQvomSVjfOqzZlgME3ct+ENTc70I4YhrmKfCI9QudOz0Vnp/02/oiUXDxViOQHhaTRzqi4gGEmTUGz12TOZ1wj4OvQJCSb7HEYqg/wZ145UciQbEQDVUYSJKzv/AvjFNAYF9Y+WFnQhKoJzDi8QB4wVimwJQLEjQLwQY0ufHhEMSVnVg7MdLIQmhpX1Nho/RKHBXlLw729Bw5IdG7dUVl9OTi0bQ8u2PdfgoTNu0IO868j5VcMxwX5OyHi0Lrp1qyGt2Tat5mna0aIu7eghYu/3Qf4TSBcIbFiNgFQo8X2DowIxkHQfbM4LUAK0xbnRlybszAGhVnwjqvn738x6PgbCKcdqoBQMyMzVA8xgtyd+A1lqt0KP1BGFVBakfoznYuT+R1g6tclGdvo2VAI2NSeT0AbbfaJPdbvWNYOS5tkeb4XAg66YEaGTmT5K3bFykWquVyrVW2jLgszKgtapQf5G8YcOW4ZvreWE+jCVmkTqg/VDy9lyCoy66QXsvkzqg/VDy1o7PZgpiAF4Z0P44RpsV3cAyPdpfxmitskRldANTgcYmZFDgg7DgDpGA7E4Jmt1yzJS40c7KWDcyK608hkSQP/Rqzx7tJ8IY0NVOseyuCsWut3ILKJgxsaWimaS0R2tXbtgdaG1vNlvixgumFGh/krw9x+c8MzuzyFsp0FrWbfcxWtujzdRxyzfMNKD9iXX7HdBYhyWd5xDmEcFX7UpajqU6ukF7baq0R4sYm7zCEgQ/qe7Rxq1Hbq+yKq95jNGKoux3VD+lQKMg/iB5Y5MYrFABQUkEZZHZpBxof5C8tYKYVgA1E2zlQGsrrh3HzGwEX+ft6WzQ1k/M1/mdy/NMBdqukrfnWqu8c8HB8HscoA1oYi3rNtuYIaunHGiPMZo9QhFh327kKXH7Keuub6xkKbRVwY+1wVOz7rUVzoNTZ3EEgzGiTliBgfXVViBTutOmvS+56z591P10w5TXOUp/1/b3Dg+J5f03F4i6yIV1CDCLnXusQKaopjbueZnSkybwqsLZog2Gpl0kVvxjcfiW/W/wmmLfr/o3qrGxi884XiONddKIZCwJG7N9/MV8eWp6avhCeG81xO45s7MfFjvb6e9BsLc9x5fxZmireJHalxwlqNUzRX+fWeeI/T2w93QRrqK9MFJ7jy+nRRz7BMOUFQgL4U0DWjYA9nREeKd+vSbJSx5pk6teBIs5dnobpzvFmFdcket1Hy2PH/vgBOudsZA9JZ734+KxN52jHESGtx8ZGNslrcx5UrykPsjaZ4+wBNCyNugZ4wfeRMPS57id3uV3+hTRCEt5MT0WrWFfKhzw4Kjm8RC72mEbQ+xkB88O6Nexkx321IKED0MKtknCNkoIGB/KAWbgCQKVJWKDYi8tRB3AHB9sWcuO9eXAuYuffaBgFW07+BZzoE/bu8X0a5YCWrYGWHpG8gU0MGWa2L21hwFhHmRenU3xMh0p3CSA3Ze/UuyT1dlnqfgdgDZFGOuocuiBBwo+EwfuQwD1NA64hq0Mk5mF9uw2RCwgxwuhgrDtcRELVqc42Fx+8U4RQBbnXY0sB7S+ATE9AUvUskWwYNizEYkQ0zJEDsALAfYrUv4M5zzM01vjeGHj0SDBvsH2Idw18eJzF4//dbyTHfb6QHSCqlqkxWIYQJwV7GprtlOfvj06e255oNurGLYxLOPAbTgO04b2bnGu6VrAFIWJrgzOqYIWcIBW0MhWyMIB2gooKCiDA7SCRrZCFg7QVkBBQRkcoBU0shWycIC2AgoKyuAAraCRrZCFA7QVUFBQBgdoBY1shSwcoK2AgoIyOEAraGQrZOEAbQUUFJTBAVpBI1shCwdoK6CgoAwO0Aoa2QpZOEBbAQUFZfg/WdS45GCuRIgAAAAASUVORK5CYII=;" vertex="1" parent="1">
          <mxGeometry x="539" y="440" width="122" height="120" as="geometry" />
        </mxCell>
        <mxCell id="g41ISQYCcfccL3WQsRhH-24" value="" style="edgeStyle=orthogonalEdgeStyle;rounded=0;orthogonalLoop=1;jettySize=auto;html=1;" edge="1" parent="1" source="g41ISQYCcfccL3WQsRhH-19" target="g41ISQYCcfccL3WQsRhH-20">
          <mxGeometry relative="1" as="geometry" />
        </mxCell>
        <mxCell id="g41ISQYCcfccL3WQsRhH-25" value="git push" style="edgeLabel;html=1;align=center;verticalAlign=middle;resizable=0;points=[];" vertex="1" connectable="0" parent="g41ISQYCcfccL3WQsRhH-24">
          <mxGeometry x="-0.1449" y="2" relative="1" as="geometry">
            <mxPoint as="offset" />
          </mxGeometry>
        </mxCell>
        <mxCell id="g41ISQYCcfccL3WQsRhH-19" value="Developer" style="shape=image;verticalLabelPosition=bottom;labelBackgroundColor=default;verticalAlign=top;aspect=fixed;imageAspect=0;image=data:image/png,iVBORw0KGgoAAAANSUhEUgAAAEgAAABKCAYAAAAYJRJMAAAAAXNSR0IArs4c6QAAAIRlWElmTU0AKgAAAAgABQESAAMAAAABAAEAAAEaAAUAAAABAAAASgEbAAUAAAABAAAAUgEoAAMAAAABAAIAAIdpAAQAAAABAAAAWgAAAAAAAACQAAAAAQAAAJAAAAABAAOgAQADAAAAAQABAACgAgAEAAAAAQAAAEigAwAEAAAAAQAAAEoAAAAA+Mn0GgAAAAlwSFlzAAAWJQAAFiUBSVIk8AAACwtJREFUeAHtW2twVFcdP+feJQlQQkBogJBks5tSypINI5Ia8hgLDqW11HFwpsXxQ+lYxrYj03bsWJ2RER0tftBWOpaOovY1otI6OtNSHYvabEJ4lBY2CaDsbjYPqiFtgEBNsrv3Hn/nbs7NJt3d3N09u5BM7oc9/z3n/F+/8z/Pey4hM88MAjMIzCBw/RCg10t1ifv25QUs7y6qkEbGyCpKaRlhrNCwh9JBxlg3peQM00nTMA29dcF7rPd62JpzgBzV9fdQRh+Hs3cAFEv6ARZD/X8wyp4JnG5+I5dAWTJQhkGO1XWfoar6PBSuy0QekDrBNO2RQHvLu5nIscqbC4AUh7v+u5TQXQgYRRgGRzVK2GFdJ3+hOjlOVO28X7tymZc71flFRFNvYQqpURSymRG6EYaqJi9jOiPs+wFv8w+Qp4v8bKRZBchutxeohWW/R0e6VxgPx4YIIz8PjejP9Pyr5QORnywtvbVuWV6+8jih5FEAPVvURc/7szbYc38wGBwWebLT7AHkcuU51YWHEDUbhdFw6O8RQr/W5W3qFHmppOXuxgobYfshc4Pgg8zDfm3gbtLRERJ5MlMzbGUK5bKcS1e+AkfMyEHWj/1ezwNX+roupasLvJcv9XW/unBJeQFk1HM50OFYSOc4B/q6/piu3GR8WQHI4W54WKH0KVMxY9/xeT3fw38+G2X6MIDx9sLishDQiUYnJVVFxWUXAZ70gVt6F3OubizFUHwW48VcAwnG9gGcRzJFJR5/pbvheYD0cFQP+XiIjKyUvV4yZ5V4BqSTB3D2CHAwPnh9//sPX/Nk5eGysUJqM4SjQWbTvD2yFUkFyOmqrWSU3GcaqaN1fb4R879sgsvWWDSCIBvLgfu5DTLVSAWIqLYdYr2Cln3L3950RKax8WT5OzwtXBcvM3TDhnj10s2TChBmlK+MGaLvHaOzTDHtOaEB66RtgpaRShuky1wNq/JstMMwipGPfN6mYtCaDCMtyFAr3Y19CKFP8bphLbSqq/3oWQt8k1aRFkGqSmvHtLF/gs4VOFythvXDO5zgj6LkrY9Smf9KA0ghbKUwhzF6StA5Sxl5X+iKtUXkpZtKAwh9f5kwAq2Z1lZC8KeT6owFBR/2fksFnWkqDSCAcpMwRqHaVUHnKlUVfVDoQgTPE3SmqTSACMXZ3+ijU2ITdK7ScTpjbMlUvzyACDHOcrhBVFeM2SRT41Lhn6DTtCUVGfHqSgMI24qgqYCSFSadKyJGp8wxUBpAWFAdM7GgJGbKN3OzS8TopIwdl6VMGkDa4LWjiCI0nrHkrylZWZOzbsZ1YRa9nevmNrBrQ62clvFIAygYPIV+T5ujRtFZBfn5MdsOGaYmljGqy5gYEMmeQODklcS1UyuRBlBUrb5fqKeM8GOOXMxm0EGfEHpx5v0rQctIpQI0MqAdRJD3G4ZRWuGoaviGDCOTyaisrt+JqLFH67D+qA3JOFIrk3rkOjjYGylaUn4V48E93AykdUVLSl/HUehHqZllrXaFu+5WhagHoCiPc2Ah9s2u8y1HrXFbqwXwpT+q093wHo4+3FwyQr5Du3K1PjpGydNlt68pUufPa0YjuAw9OL3ES4FPg5a6SZbaxUbd1zQWuQ/IXOP/uQNqYeEh7tBoecaJAQ5kCnC4LkOnZHC4odkAiATbWs8Rpj/IZ1yuBJvHWtv8eS32qlpzx8/z03m4DC6Ly+T8UKFrhG03dKYjcBIeqWNQrK6Bi91nFhbbgwihLejHaAi6GOPF9gXFZeFLi+a9S/r7U+sK/EXk0pVPqFT9LRAv4bqAPmSwB/EK+kCsbpl0NsagcfZVuBu+rBL6GwBl7vbR6j0AbK+mDb0a7Djx33EME/7YXeuWqOrsrwKInRjXSs1i3q0QOZ1ez2tmXhaIrAPEbXbc1ngLncUOwMG1sT7w7oFx5DSj+nHCFB9mIeOtK8JtAXa8lZQpNRjkq8E3bigA30kWptsCZ5vOx8rLBp0TgEYNt+FF3wPoFvyWx1gkpOAVjzyd0N2d3qYXwZZaF01BT2zVcS0TWyCbRldZNCrzTAayz6uMFOB2mrQTw8lsyXYEUcfqhrupQndgDPoClEmZFIyuSelhouu/9LU1vw4nzcO6yRxOtTxbAFEMzlsV49IUqYprFGOd6G5edLdzTNcDmJlwL1EfxH8dV+3mUF1dTBR9OcamVbhotQbljnhyIMPHiP40rua9iHLpQEkHqMJVX62oyj6xThFOma3O2B8iofDbwXNHg6LMSsovfebTWZswcG+F7E3gmbgRPqUxbWent8VjRZ7VOjIBsmGLsRst/S0INbsSWvgyYmLv8EjkF73/br1g1bBk9cpva1iq5pGHEKF8MyzGNuMsCMuH50YGwk/19rYOJZNhtUwKQPzKC5aC/KqdeZLIr9oBnD2XPw49O+A7Zr5xsGqYlXrFbvfcm0jhY5Qo38YYF71uYzCy0yOatrWn/YjfipxkdTIGyFlVv5ZQ5Q2As0QowgbjkBYKPZpqNxL8qabLV9SWFMy2/RrRw7te9GFsQNe0zYGOIydEVjppRgA5quo/r1DlT2brMRZC5Dzp9zbvTceYDHkozp8eUyi/n0SN4w/0uasRRrYE2zzvpCs7bYCcrro7iE15Eyth49YpBuGL2DVu6ezwSDswT8cph2v9OsWmvoloWsz5eVeHk1/ynfb8NR15aQFkd61fY1NtzTGRE2Ba5E5/R6svHSNk80QP0pS/mSt27NsYidT6vUfaU9WVMkDRzWPBcaEckdM9TEJ1su8GpurIxPrGxKGSJjhoN8oYCwyFRmounDue0ulmqlsNRbUV8E2n2Et9qBN9040GDgcEt9t6aFjD0S+LzqBYaBbkFxxEkbkEMYCb5Celys6qhicBzkNcJqZwjUS0e3P1zcQkfsQtHujv6ced6vdxd3EbIgnjN6nAmfnQpb6u5rgMcTItA4SvdFZgYXYQM0SUh+m7/O0tL8eReUNlDfR1+xcUl6Jd6ee4YXjr2lh4c8lrly/2fmjFUMtdDJ8w/Sxm+jyGqfxpKwpuhDoB79CPMFZ6DVuwBFCp7VmrdlkCyFlVdxdaYPOo0Iimkx2gpW8MrRqder2TYXSv7eCLcF74cmfF6saxRWUSgZYAQq/aJWRgXfFCZ7sn2hoicwqkuO3/Hl4kvCRMVRWyW9DJ0kkBcrobN2C981kuBFuI4dCwPmW61kTHw0T5IfKMKOI+Yb3UMLHOxP+TAoQ91tdNJsr2W/3Gy+S5gQjjM6zYKKIqPw1I+iQFaNmKtYsQNl8UEsIRsk/QUzXVdDq2T4RvZVX1C5L5khSg2flzt4qZC2PPke4OTybnycnsyFkZHz8xVLQZCjGj5VG6NZnypABRyrASNZ/fmdSUJ9grYy6M++hvLHuUSgxQZWU+vtzZKDjCOsMOeXo8IV2L/TpxAyFrZyXyLCFAFflLq82jDELOd7c1BxIJmWr5/KQR3Sz6RhcnkQ5X/ppEPiQECJ9j1wgmvFW4rmc8wg6ZKXwy92NUUY37jfHkJwQIWzvzdQ0GaPM7iHhCpmQeZa2m3ZQYd4zM/zFEQoCwNK8w6zES/czJzJj6hK6zczFerIihx5EJAULUlIuauk4/EPR0SfEOrVP4grHW/BBH5Ik0IUCIIHMBpShadEATXNMgDYfC/WNusJvH6PHUxLeTZikOxOYCJOOh1NZXWd1olk03AgdqcxL5lDiC2OjBWCLOaZSPQBCx8AmvEgKkE/ZT7MNCn+CYbhnRd3k/mW5uzfgzg8AMAtMDgf8Dq76aES0VPiEAAAAASUVORK5CYII=;" vertex="1" parent="1">
          <mxGeometry x="30" y="463" width="72" height="74" as="geometry" />
        </mxCell>
        <mxCell id="g41ISQYCcfccL3WQsRhH-23" value="aws s3 sync" style="edgeStyle=orthogonalEdgeStyle;rounded=0;orthogonalLoop=1;jettySize=auto;html=1;" edge="1" parent="1" source="g41ISQYCcfccL3WQsRhH-20" target="g41ISQYCcfccL3WQsRhH-16">
          <mxGeometry relative="1" as="geometry" />
        </mxCell>
        <mxCell id="g41ISQYCcfccL3WQsRhH-20" value="Github repository with CI/CD action" style="shape=image;verticalLabelPosition=bottom;labelBackgroundColor=default;verticalAlign=top;aspect=fixed;imageAspect=0;image=data:image/png,iVBORw0KGgoAAAANSUhEUgAAAEoAAABICAYAAABRGGN6AAAAAXNSR0IArs4c6QAAAIRlWElmTU0AKgAAAAgABQESAAMAAAABAAEAAAEaAAUAAAABAAAASgEbAAUAAAABAAAAUgEoAAMAAAABAAIAAIdpAAQAAAABAAAAWgAAAAAAAACQAAAAAQAAAJAAAAABAAOgAQADAAAAAQABAACgAgAEAAAAAQAAAEqgAwAEAAAAAQAAAEgAAAAAVjU3vQAAAAlwSFlzAAAWJQAAFiUBSVIk8AAAB9VJREFUeAHtXHtsFEUYn9m9XikUCkggItLeXSIg9KrQQOkjYAyJIIkmmkiCGjWEEP1TBHwgmBAJBf1L/zCgJgYf/5Bg5I0kmj4AAyhXkNak7VHQIFGBgn3e7fj79m73rsfu3m6L6d5lJ9nON/N9Mzvf7775ZnYeZcwLHgIeAqOAAB/JOwNzqku5X3qVCb4cFQUEY4hEJ/4cjQ/EPoq2noqOpH43lR02UIFwzXqJSdsATaGhQkIMAMDN7S0N9Yb8HMuUh9PeQLiuXuJ8K0DymZbnXAZ/2eRpM8ff+LPrmKlcjjAkp+0sK69+SuLsDb2cEKfiQiy/1adMoIdohjydz/nrVEZP5yjhuOsFw7WXOOezSV8h2L6OSMMqkLEM/X3BcN03nLNnEnKitSPS+DAVyZDLmaQjiyoNV83XQWLsptJ9ew00zQSJlI8RD6jcpASVCZXXzic6V4O5jzHQyCd8lTSuJYJyIBr9RQVCy0mPiResqDnAmPS8mi/xM6GKunSRIbRgogf2dk4Ryq5oS/O3Q5guSDiyKMHFfXqbhXRFp80IOzLJspzxsbC8WlmS99OIalblaOU7AooL/rfeUK48qNNmhB0Zg7IYUd9/ILxohgFr1LIcdb0Yj53xsYJkY6WVZWWPTDTrfsRDt1upa6aIyvaWxrN6OoMIhaunCi5/h569EF6twC/8yyGyO0Ns1JKOLOpy5NQ5IUQrtRYKTZQmjN8D0ghsH/FIhmSpDEA6R7RZaI80XxcKO6rxucTu12g3xEZKWrYLznaTzOX9JETDfyhc2xBn7L07/aKJ8ooLeQ1msVuAZBWlKVAZRFmnBpwLVJUcLYRw9COqL/of/zhuDI1IimA79TZxXiVzfrhkjNRND9FAUAcJ5vSBG0cxvf02CcdAUb2dkYYNTCh4WL/pe+hbT2Eb2yONrhvBTNtswRgWUFRfe6RppzIYn4X5Tz1m6C0A7Q7if+GPLpAVYfVgVr58EJO+jn0UFdJC56Xmy6A3Jh8tOy/jYVtUXqJhoZQHlAU46SwPqHQ0LGgPKAtw0lkeUOloWNAeUBbgpLM8oNLRsKA9oCzASWd5QKWjYUGPaGZuUe+osWbMXTzZ75OW4nMqiBVTBYsWUXa770RHx9lbI2lU3gBFABX65O345nwJSzV+LAElA4jxRYPYFfq0r69n8x+/nf1L4ziJ86LrlZUvnl0o+84DoLVY4vHfDQAvAHDrxhQVnZk5t462zRyHnAeKLEnmvmNY79PX2LFC+JNQxIfqI8RpDRVsYJT6fOLQ9IcWTNHy7MY53/XU7sZYcqNDdAOk1R3nG7FNlgrBedVPMln+Ep2whMCCZW0Dd11KIjuV0xaV2MBgL2tqGoFEvI4LzQdZPL5akwNgryTLallZY9daFJRZiu37LVYaQCYEv6RuC1F3y7Sk9LIEFuo7jZFwEZWRJox9HPx96TJWtGuBglNeAiCWWDV+CE8RjUPSBgnURzIACpMGLpVRbDfkdNezq+S9kHOvRQnxI7rTD5ZKchHiqbMNtZayCWaNJsOFEtVoO7FrgSKQcFRoq5US5JDlkuLnyOegWy0MVtSuNPNTwfKaFaltNDGodPecsKo7k5fTXS+5nf95Sim+V50KpDJUSgVJkr7SsvEjfGZ2FECTyYxda1GZDTVL98fib2JWDmthM2BVJZgvHVBHt4Tjpu3p2sRIl6gB22ldfX2975jVZ5af80BdvXjyH3zCLJOZ77g2O08Co45uAE8P2IO8HIvzFcP53svprqchEG052dofj1Vg43U3ngEtPxWLQYD0SV9vb2XXxYZfU/n2qZy3KE1VsizQa/Htt8kv88cE4wE4b5x9U6LkuJ36JK1eLc4boDSFkoDZnnFr5bLFedH1sil5L/geUDZR9IDygLKJgE0xz6I8oGwiYFPMsygPKJsI2BTzLMomUHk1My+bXVUm+wtew3fdE1ijCuCDGBvGrBPPETYY/zh55tQmNEPF8saiQuV1G2S/rw0rCOuxejAPG57jQBcjLqeLmFKB3BYK16QuZA7FIWsqL4AKhet2MontwEewwS5xEgO6+8ylelU2Kyx3C+Q8UOo1XFiRrprh1V12UudDdjhXd13lo7AqgtMniaU2wZmsK2dOcNzL2a6x4ZBwdbdxFdIxLQ8nMo6A/h6rnl+jSz5L+RKXdiBydHnSVRalKNI1UoQCF+yJwLxF0xIp47+4uvsocJ1DXDhsy6u77E7vGiwD3yBZADaLrv0SbTe4yqIG+MDhMaJggHwNlKnksv+a1fXaDCUPWi3O0fko3ASjMwkvUDn12i9jllfj0ut3lUX9Hjl9VWHi7fQG2qYVcSW7bEpG4XxKdvmUhKuAomZ1Rpp2xZX40+gmjZgP9aSamoWSePJEi5VcSkYSwtGBsvRNCqs3uJJHfsbHC9Trt6qPunU7YNb9gsEFJay4qBNdehIpExODC+hGq13FXGdRdhtOclD0Z1heK9H4xS2v7gKkPRpIKNPmBCSq31XOnBrkMOBQnZ2ru/xdILlYqxtlNmq03Tinu56mpDrbTp90agyjWLBd7ZEGx58ydiZ1Rq9zVR7+m9DxyVNLezGbWoKphbFO6rVe5S1c3d06nMYbVzqcmka5zI3rXU0lk6bvlWQ5htFyArzWOHSXATj5NjxfiMH4ix0Xmw+NcjO913sIeAg4Q+A/GsSGqB9MVNAAAAAASUVORK5CYII=;" vertex="1" parent="1">
          <mxGeometry x="240" y="464" width="74" height="72" as="geometry" />
        </mxCell>
        <mxCell id="g41ISQYCcfccL3WQsRhH-26" value="" style="endArrow=classic;html=1;rounded=0;entryX=0;entryY=1;entryDx=0;entryDy=0;" edge="1" parent="1" target="g41ISQYCcfccL3WQsRhH-9">
          <mxGeometry width="50" height="50" relative="1" as="geometry">
            <mxPoint x="270" y="463" as="sourcePoint" />
            <mxPoint x="280" y="390" as="targetPoint" />
          </mxGeometry>
        </mxCell>
        <mxCell id="g41ISQYCcfccL3WQsRhH-27" value="Invalidate Cloudfront Cache" style="edgeLabel;html=1;align=center;verticalAlign=middle;resizable=0;points=[];" vertex="1" connectable="0" parent="g41ISQYCcfccL3WQsRhH-26">
          <mxGeometry x="-0.0459" relative="1" as="geometry">
            <mxPoint as="offset" />
          </mxGeometry>
        </mxCell>
      </root>
    </mxGraphModel>
  </diagram>
</mxfile>
